<svg width="3166" height="599" viewBox="0 0 3166 599" fill="none" xmlns="http://www.w3.org/2000/svg">
<path fill-rule="evenodd" clip-rule="evenodd" d="M3064 2.072C3060.42 3.571 3057.13 6.891 3054.65 11.5C3052.61 15.302 3052.49 17.001 3052.2 45.75L3051.89 76H3048.9C3039.41 76 3021.81 82.043 3016.31 87.188C3013.09 90.205 3009.34 102.094 3008.02 113.5C3007.03 122.055 3006.38 124.23 3003.55 128.551C2998.6 136.108 2995.79 142.022 2996.4 143.606C2996.7 144.382 2998.08 145.536 2999.47 146.169C3001.43 147.06 3002 148.063 3002 150.595C3002 155.253 3003.7 159.108 3006.01 159.713C3007.65 160.142 3008 161.084 3008 165.061C3008 172.344 3010.64 174.867 3019.77 176.304L3027 177.443V181.721C3027 185.885 3026.91 186 3023.75 185.983C3014.64 185.934 2999.67 183.542 2983.5 179.554C2963.94 174.727 2948.82 171.795 2934 169.95C2927.61 169.155 2921.88 167.676 2916.5 165.435C2901.94 159.368 2898.49 158.199 2869.38 149.473C2827.45 136.902 2823.13 135.129 2814.06 126.725C2805.18 118.5 2800.22 114.987 2791.14 110.503C2778.83 104.415 2764.15 101.898 2752.64 103.902L2746.03 105.054L2726.26 97.868C2715.39 93.915 2690.99 84.702 2672.03 77.393C2653.07 70.085 2637.43 64.236 2637.27 64.395C2636.7 64.968 2640.02 100.443 2641.53 109.869C2645.84 136.85 2653.77 157.75 2665.41 172.877C2678.67 190.117 2698.48 204.344 2740.44 226.776C2791.75 254.202 2829.2 272.189 2880.34 293.971C2903.99 304.048 2908.93 306.485 2907.84 307.536C2907.1 308.241 2899.99 312.908 2892.04 317.909L2877.58 327L2865.04 327.003C2844.8 327.008 2827.95 330.843 2811.5 339.191C2803.65 343.175 2790.08 351.992 2788.06 354.422C2787.33 355.31 2788.3 357.575 2791.54 362.507C2794.02 366.276 2795.69 369.664 2795.27 370.037C2794.85 370.41 2759.63 387.715 2717 408.492C2674.38 429.269 2639.2 446.546 2638.83 446.884C2637.09 448.464 2664.16 478.81 2675.77 488.309C2696.45 505.227 2718.47 512.672 2740.06 510.046C2744.93 509.454 2749.72 508.685 2750.71 508.338C2751.69 507.99 2750.69 509.054 2748.47 510.701C2742.92 514.823 2736.27 522.561 2733.37 528.265C2728.03 538.787 2726.18 555 2728.96 567.04C2730.74 574.745 2736.12 585.598 2741.18 591.693L2745.5 596.886L2841 596.971L2936.5 597.056L2995.65 582.312L3054.79 567.569L3060.27 569.296C3063.37 570.272 3072.36 575.333 3080.95 580.936C3089.31 586.389 3099.16 592.054 3102.83 593.526C3111.01 596.809 3126.21 598.465 3140.5 597.632C3156.9 596.677 3163.62 593.239 3164.69 585.266L3165.22 581.336L3155.09 580.109C3129.76 577.039 3114.86 566.796 3101.96 543.595C3091.38 524.556 3089.6 521.72 3087.51 520.584C3081.57 517.346 3081.59 517.43 3086.2 514.72C3101.02 506.013 3110.09 493.147 3113.59 475.847C3114.9 469.396 3115.14 464.388 3114.7 452.564C3114.06 435.158 3112.45 426.742 3104.45 398.844C3101.39 388.196 3098.48 375.679 3097.96 371C3096.55 358.091 3096.82 330.026 3098.51 313.379C3099.85 300.168 3103.62 275.427 3104.5 273.994C3104.69 273.698 3108.59 273.768 3113.17 274.149C3117.75 274.529 3123.53 274.871 3126 274.908L3130.5 274.974L3133.73 261.737C3135.51 254.457 3137.47 245.575 3138.07 242C3139.69 232.518 3139.39 211.079 3137.47 199.083C3136.07 190.277 3131.66 172.437 3129.53 166.93C3129.09 165.8 3130.27 164.613 3133.71 162.7C3136.35 161.237 3139.1 159.644 3139.83 159.16C3140.89 158.462 3140.4 156.744 3137.46 150.89C3130.94 137.91 3120.88 119.685 3116.89 113.656L3113.03 107.811L3115.51 103.568C3120.3 95.392 3117.89 88 3110.42 88C3107.8 88 3106.06 88.782 3103.92 90.923C3102.32 92.531 3101 94.556 3101 95.423C3101 97.954 3099.69 97.203 3096.79 93.005C3092.81 87.25 3081.35 81.326 3068.97 78.624C3066.7 78.129 3066.48 77.668 3066.81 74.154C3067.21 69.996 3069.66 68 3074.36 68H3076.62L3074.36 51.822C3073.11 42.924 3071.98 31.824 3071.86 27.155L3071.62 18.666L3075.31 15.477C3079.66 11.722 3080.09 8.381 3076.75 4.494C3074.19 1.52 3068.09 0.360004 3064 2.072ZM3072.83 7.848C3073.02 9.173 3072.31 11.133 3071.21 12.348C3070.13 13.532 3068.8 15.4 3068.25 16.5C3067.14 18.723 3068.2 42.753 3069.93 54.5C3071.32 63.965 3071.32 64 3068.69 64C3063.32 64 3062.76 65.509 3062.22 81.339C3061.95 89.403 3061.45 95.994 3061.11 95.986C3060.78 95.979 3059.43 95.686 3058.12 95.336L3055.74 94.699L3056.45 55.6C3057.09 20.199 3057.33 16.122 3059.04 12.5C3061.3 7.733 3065.37 4.908 3069.5 5.251C3071.8 5.442 3072.58 6.051 3072.83 7.848ZM2695 91.95C2721.68 101.96 2743.92 110.559 2744.43 111.058C2744.95 111.558 2745.13 112.207 2744.83 112.501C2744.39 112.944 2645.11 79.563 2644.48 78.76C2644.37 78.617 2643.97 77.204 2643.59 75.62C2643 73.162 2643.16 72.814 2644.7 73.245C2645.69 73.522 2668.33 81.94 2695 91.95ZM3052 87C3052 93.972 3051.99 94 3049.25 93.992C3046.38 93.984 3023 89.332 3022.3 88.63C3021.55 87.886 3028.46 84.191 3033.5 82.636C3040.4 80.508 3041.81 80.249 3047.25 80.116L3052 80V87ZM3073.89 84.395C3082.09 87.168 3088.48 90.717 3091.92 94.405L3094.35 97H3083.3C3077.22 97 3070.84 96.719 3069.13 96.375L3066 95.75V88.875C3066 85.094 3066.18 82 3066.4 82C3066.63 82 3069.99 83.078 3073.89 84.395ZM2687.13 98.56C2709.88 105.468 2732.21 112.245 2736.75 113.62C2742.1 115.243 2745 116.626 2745 117.561C2745 118.352 2744.44 118.991 2743.75 118.981C2741.94 118.953 2646.08 96.421 2645.65 95.921C2644.79 94.928 2644.12 86 2644.9 86C2645.37 86 2664.38 91.652 2687.13 98.56ZM3023.59 93.499C3033.94 96.66 3055.27 98.971 3089.14 100.602L3102.78 101.258L3103.51 98.879C3105.44 92.516 3112.18 89.707 3114 94.504C3115.22 97.7 3113.62 101.396 3110.39 102.868C3109.08 103.467 3108.01 104.529 3108.02 105.229C3108.03 105.928 3110.97 111.45 3114.56 117.5C3120.53 127.559 3135 155.115 3135 156.412C3135 156.713 3133.3 157.827 3131.22 158.888L3127.44 160.817L3121.63 146.658C3118.43 138.871 3113.22 127.336 3110.04 121.024L3104.26 109.548L3101.2 115.599C3099.52 118.927 3094.7 129.266 3090.49 138.575C3086.27 147.884 3082.65 155.673 3082.44 155.885C3081.7 156.637 3076 153.738 3076.04 152.629C3076.06 152.008 3081.44 141.375 3088 129L3099.92 106.5L3076.19 105.837C3043.23 104.917 3014.96 100.743 3014.18 96.68C3013.79 94.654 3015.65 92 3017.46 92C3018.13 92 3020.89 92.674 3023.59 93.499ZM2698.71 115.5C2727.03 121.275 2750.61 126 2751.1 126C2751.6 126 2752 126.93 2752 128.067C2752 129.562 2751.52 129.995 2750.25 129.63C2749.29 129.352 2725.78 125.65 2698 121.403C2670.23 117.155 2647.41 113.623 2647.3 113.553C2646.65 113.146 2645.87 105 2646.48 105C2646.89 105 2670.39 109.725 2698.71 115.5ZM3027.28 107.66C3033.17 109.534 3037.48 113.05 3040.04 118.086C3041.54 121.026 3042.92 122.197 3045.97 123.108C3050.59 124.494 3050.36 126 3045.51 126C3043.07 126 3041.58 125.28 3040.07 123.365C3038.93 121.916 3038 120.15 3038 119.442C3038 117.526 3033.16 112.136 3029.96 110.478C3028.42 109.681 3023.97 108.732 3020.08 108.371C3013.32 107.743 3012.11 107.219 3013.72 105.616C3014.62 104.709 3021.06 105.679 3027.28 107.66ZM2779.05 109.566C2791.46 112.888 2796.77 115.957 2807.14 125.812L2815.89 134.124L2812.53 138.524C2810.69 140.943 2808.88 144.29 2808.51 145.961C2808.14 147.633 2807.43 149 2806.93 149C2806.42 149 2800.81 146.918 2794.45 144.372C2785.37 140.741 2781.71 138.674 2777.44 134.772C2770.37 128.309 2769.91 122.985 2776.85 127.869C2780.53 130.462 2786.97 133.588 2790.25 134.377C2797.57 136.136 2788.22 126.09 2780.7 124.112C2778.39 123.505 2770.88 122.509 2764 121.898C2749.28 120.59 2747.91 120.301 2750.03 118.962C2752.29 117.534 2758.36 117.814 2771.46 119.952C2778.05 121.026 2783.62 121.718 2783.84 121.49C2785.48 119.849 2769.16 117 2758.12 117C2754.27 117 2750.84 116.547 2750.5 115.993C2749.28 114.03 2753.43 113.684 2763.4 114.919C2780.45 117.031 2782.62 117.19 2781 116.21C2779.54 115.327 2768.95 113.711 2756.25 112.433C2752.81 112.087 2750 111.398 2750 110.902C2750 109.565 2756.62 109.803 2768.51 111.57C2774.32 112.434 2779.62 112.952 2780.29 112.722C2782.86 111.832 2766.7 109 2759.05 109C2751.71 109 2749.03 108.057 2752.25 106.601C2754.76 105.463 2770.03 107.152 2779.05 109.566ZM3070.8 108.638C3092.53 109.223 3095.04 109.463 3094.49 110.896C3094.15 111.778 3088.7 121.829 3082.37 133.232C3076.04 144.634 3071.13 154.393 3071.45 154.917C3072.47 156.565 3083.35 162.053 3084.03 161.258C3084.38 160.841 3088.84 150.6 3093.93 138.5C3099.02 126.4 3103.53 116.138 3103.95 115.696C3104.69 114.915 3112.64 133.468 3120.91 155.252C3126.73 170.562 3131.53 186.992 3133.39 197.926C3136.22 214.533 3135.2 237.754 3130.99 252.25L3129.91 256H3119.95C3113.84 256 3110 255.606 3110 254.978C3110 254.415 3113.43 250.284 3117.63 245.796C3121.83 241.309 3126.09 235.807 3127.11 233.569C3131.84 223.161 3127.69 211.97 3116.3 204.412C3107.63 198.659 3099.08 195.936 3082.25 193.573L3078 192.976L3078 207.738C3078 215.857 3077.7 231.613 3077.34 242.75L3076.68 263H3064.06H3051.43L3051.81 209.25L3052.18 155.5L3056.09 151.866C3058.9 149.252 3060 147.416 3060 145.331C3060 143.153 3060.77 141.979 3063.08 140.614C3070.32 136.336 3072.29 126.597 3067.1 120.78C3064.69 118.09 3063.51 117.547 3060.22 117.633C3058.04 117.69 3054.9 118.538 3053.24 119.517C3050.29 121.257 3050.15 121.246 3046.86 118.993C3042.5 116.003 3035 108.845 3035 107.668C3035 107.149 3037.49 107.019 3040.75 107.368C3043.91 107.707 3057.44 108.279 3070.8 108.638ZM3027.81 111.76C3029.62 112.727 3032.05 115.033 3033.22 116.883C3035.25 120.09 3035.26 120.219 3033.43 119.656C3022.25 116.228 3013 115.025 3013 117C3013 117.55 3014.33 118 3015.95 118C3022 118 3035.31 123.055 3039.57 126.973C3041.81 129.031 3044.19 130.895 3044.84 131.115C3045.75 131.415 3045.79 132.84 3045.02 136.893C3043.45 145.199 3043.74 149.405 3046.13 152.431C3048.18 155.049 3048.24 155.856 3047.82 178.536C3047.59 191.408 3047.11 202.223 3046.76 202.57C3045.82 203.509 3039.51 201.185 3036.44 198.772C3032.14 195.392 3030.05 189.56 3030.02 180.895L3030 173.29L3022.88 172.693C3013.67 171.921 3012 170.491 3012 163.364C3012 158.384 3011.82 157.994 3009.25 157.365C3004.52 156.208 3003.49 153.083 3007.75 152.85L3010.5 152.7L3007.65 152.274C3005.03 151.881 3004.85 151.594 3005.43 148.54C3006.08 145.061 3005.03 144 3000.92 144C2999.86 144 2999 143.842 2999 143.649C2999 141.726 3002.1 135.279 3005.56 130C3008.38 125.705 3010.23 121.465 3011.03 117.5C3011.68 114.2 3012.42 111.162 3012.67 110.75C3013.56 109.253 3024.5 109.982 3027.81 111.76ZM3065 122C3069.11 126.108 3066.15 136.048 3059.54 140.385C3058.29 141.199 3057.01 143.221 3056.67 144.878C3056 148.243 3052.9 150.419 3050.06 149.517C3047.45 148.692 3047.21 147.535 3047.9 139.079C3048.64 129.914 3050.75 128.228 3051.2 136.445C3051.7 145.621 3053.5 142.365 3053.5 132.294C3053.5 124.259 3053.75 122.896 3055.5 121.576C3058.31 119.449 3062.64 119.643 3065 122ZM3014 122C3012.88 122.724 3013.42 122.973 3016.12 122.985C3018.12 122.993 3021.68 123.68 3024.03 124.511C3029.76 126.532 3030.16 125.74 3024.74 123.114C3020.03 120.836 3016.39 120.457 3014 122ZM2703.58 128.529C2729.47 131.538 2750.96 134 2751.33 134C2751.7 134 2752 134.717 2752 135.593C2752 136.979 2750.79 137.11 2742.75 136.597C2737.66 136.273 2717.75 135.542 2698.5 134.973C2679.25 134.404 2660.73 133.696 2657.35 133.4L2651.2 132.862L2650.55 129.181C2650.19 127.156 2649.66 124.702 2649.37 123.726C2648.92 122.185 2649.35 122.025 2652.68 122.506C2654.78 122.81 2677.69 125.521 2703.58 128.529ZM2767.24 125.372C2769.12 128.27 2768.31 128.474 2761.05 126.917C2756.11 125.857 2754.76 124.692 2757.25 123.64C2759.15 122.838 2766.4 124.096 2767.24 125.372ZM3057.26 124.25C3055.91 125.962 3054.78 131 3055.74 131C3056.17 131 3056.97 129.988 3057.51 128.75C3058.78 125.853 3061.41 125.846 3061.82 128.739C3062.04 130.295 3060.98 132.038 3058.34 134.458C3055.35 137.193 3054.8 138.199 3055.76 139.156C3057.95 141.353 3065 133.005 3065 128.205C3065 124.363 3059.42 121.511 3057.26 124.25ZM3016.27 125.729C3014.15 126.113 3010 130.33 3010 132.096C3010 133.876 3017.77 135.064 3022.18 133.959C3027.68 132.583 3027.45 132.592 3034.25 133.48C3037.41 133.893 3040 133.99 3040 133.696C3040 133.401 3037.64 132.394 3034.75 131.457C3031.86 130.52 3028.15 128.967 3026.5 128.005C3022.99 125.961 3019.4 125.161 3016.27 125.729ZM2763.5 129.559C2767.58 130.238 2772.58 132.752 2771.67 133.666C2771.39 133.944 2767.75 133.413 2763.58 132.486C2758.35 131.322 2756 130.344 2756 129.332C2756 128.406 2756.65 128.055 2757.75 128.379C2758.71 128.662 2761.3 129.193 2763.5 129.559ZM3023 129.015C3024.33 129.891 3024.33 130.109 3023 130.985C3021.08 132.249 3013 132.301 3013 131.05C3013 128.513 3020.05 127.079 3023 129.015ZM2766.37 134.934C2770.86 135.997 2775.1 137.659 2776.24 138.795C2778.23 140.787 2778.23 140.787 2768.87 138.875C2756.76 136.4 2756 136.139 2756 134.433C2756 132.622 2756.77 132.659 2766.37 134.934ZM2818.69 137.793C2817.8 138.779 2815.81 142.359 2814.27 145.748C2812.23 150.236 2811.11 151.687 2810.15 151.092C2809.1 150.445 2809.39 149.151 2811.53 144.888C2814.74 138.485 2816.77 136 2818.81 136C2820.1 136 2820.08 136.254 2818.69 137.793ZM2828 140.077C2828 140.428 2826.5 143.596 2824.66 147.116C2822.83 150.636 2821.14 154.078 2820.91 154.765C2820.58 155.757 2819.83 155.762 2817.25 154.787C2815.46 154.113 2814.01 153.098 2814.02 152.531C2814.06 150.913 2817.76 143.148 2819.99 140.016C2821.84 137.411 2822.26 137.27 2825.01 138.308C2826.65 138.93 2828 139.726 2828 140.077ZM2774 141.871C2781.43 143.402 2789.3 145.654 2791.5 146.875C2794.48 148.53 2794.86 148.976 2793 148.63C2791.63 148.375 2782.96 146.934 2773.75 145.429C2759.12 143.038 2757 142.457 2757 140.846C2757 138.471 2757.73 138.515 2774 141.871ZM2753 141.794C2753 143.453 2749.58 143.796 2707.75 146.34C2682.86 147.854 2661.47 149.309 2660.21 149.574C2658.3 149.977 2657.61 149.351 2656.01 145.778L2654.09 141.5L2669.3 140.96C2677.66 140.663 2699.91 140.326 2718.75 140.21C2751.1 140.012 2753 140.099 2753 141.794ZM2832 141.398C2832 141.617 2830.89 143.754 2829.53 146.148C2828.17 148.542 2826.76 152.412 2826.41 154.75C2826.01 157.399 2825.25 159 2824.39 159C2822.51 159 2822.64 156.962 2824.93 150.942C2827.18 145.01 2829.64 141 2831.02 141C2831.56 141 2832 141.179 2832 141.398ZM2860.27 150.61C2873.05 154.796 2890.93 160.93 2900 164.242C2913.55 169.186 2919.54 170.776 2933.5 173.126C2961.68 177.871 2976.91 181.318 2980.79 183.834C2981.82 184.501 2981.57 186.442 2979.57 193.36C2978.18 198.139 2976.75 204.984 2976.38 208.572L2975.71 215.096L2972.61 214.424C2955.18 210.652 2910.93 196.723 2885.5 187.002C2858.2 176.569 2829.37 163.139 2828.31 160.358C2826.97 156.874 2833.19 143 2836.09 143C2836.62 143 2847.5 146.425 2860.27 150.61ZM2781.08 148.416C2794.83 150.665 2803.07 152.504 2805.92 153.96C2808.27 155.159 2810.03 156.305 2809.83 156.508C2809.62 156.71 2797.99 155.217 2783.98 153.188C2759.61 149.66 2758.49 149.402 2758.18 147.25C2757.99 145.883 2758.38 145.01 2759.18 145.026C2759.91 145.04 2769.76 146.566 2781.08 148.416ZM2754.34 148.433C2754.71 149.397 2754 150.046 2752.19 150.414C2740.89 152.716 2668.84 166 2667.66 166C2666.11 166 2660.56 157.105 2661.52 156.147C2662.06 155.606 2743.06 147.357 2750.14 147.121C2752.47 147.044 2753.98 147.517 2754.34 148.433ZM2789 156.081C2808.84 159.038 2817.34 160.708 2819.5 162.073C2821.15 163.115 2821.93 163.974 2821.23 163.983C2815.6 164.058 2761.36 156.597 2760.77 155.666C2759.81 154.148 2759.79 152.003 2760.75 151.991C2761.16 151.985 2773.88 153.826 2789 156.081ZM2756.42 155.643C2756.76 156.547 2756.84 157.496 2756.58 157.752C2756.33 158.008 2738.77 163.323 2717.57 169.563L2679.02 180.908L2674.59 176.212C2672.15 173.63 2670.29 171.373 2670.47 171.198C2671.05 170.613 2750.46 154.184 2753.14 154.091C2754.74 154.036 2756.04 154.654 2756.42 155.643ZM2828.5 167.795C2830.27 168.936 2830.04 169.025 2826.5 168.572C2824.3 168.291 2809.68 167.078 2794 165.878C2778.33 164.677 2764.94 163.258 2764.25 162.725C2763.56 162.192 2763 161.227 2763 160.581C2763 159.039 2825.62 165.934 2828.5 167.795ZM2759.37 162.532C2759.76 163.528 2759.18 164.352 2757.73 164.888C2756.5 165.342 2740.53 171.249 2722.22 178.017L2688.95 190.321L2685.98 187.485L2683.02 184.649L2719.26 172.933C2739.19 166.489 2756.24 161.168 2757.14 161.108C2758.05 161.049 2759.05 161.689 2759.37 162.532ZM2762.98 169.941C2762.97 170.249 2748.54 176.702 2730.93 184.282C2699.41 197.843 2698.86 198.036 2696.63 196.282C2695.39 195.302 2694.17 194.116 2693.93 193.647C2693.7 193.178 2708.58 186.815 2727 179.507C2756.75 167.708 2760.64 166.398 2761.75 167.802C2762.44 168.671 2762.99 169.634 2762.98 169.941ZM2801.99 168.523C2829.27 170.78 2838.26 172.076 2836.79 173.545C2836.53 173.804 2820.74 172.796 2801.69 171.306C2776.23 169.315 2766.93 168.254 2766.56 167.299C2765.89 165.559 2766.33 165.574 2801.99 168.523ZM2797.65 172.979C2834.06 175.566 2838.13 175.985 2837.45 177.081C2836.79 178.15 2810.06 178.292 2788.12 177.342L2772.91 176.684L2770.89 173.842C2769.77 172.279 2769.08 171 2769.33 171C2769.59 171 2782.34 171.89 2797.65 172.979ZM2752.78 185.451C2744.38 189.932 2731.85 196.593 2724.94 200.252L2712.39 206.905L2707.99 203.992L2703.59 201.078L2709.04 198.59C2712.05 197.221 2725.75 190.935 2739.5 184.622L2764.5 173.143L2766.28 175.223C2768.05 177.287 2767.94 177.37 2752.78 185.451ZM2844.85 176.098C2848.48 177.363 2848.65 177.786 2846.25 179.608C2843.51 181.692 2842.26 181.245 2841.79 178C2841.55 176.35 2841.43 175 2841.52 175C2841.62 175 2843.12 175.494 2844.85 176.098ZM2857.32 180.594C2862.47 182.347 2863.19 183.624 2859.75 184.901C2856.18 186.227 2852 183.749 2852 180.309C2852 178.694 2851.7 178.678 2857.32 180.594ZM2772.61 183.721C2771.18 185.156 2724.6 212.996 2723.66 212.978C2723.02 212.966 2721.46 212.153 2720.18 211.172L2717.86 209.389L2743.68 194.759C2767.66 181.165 2769.61 180.242 2771.25 181.725C2772.22 182.603 2772.83 183.501 2772.61 183.721ZM2837.45 180.859C2836.93 181.332 2825.48 182.237 2812 182.869C2778.67 184.435 2778.3 184.426 2777 182C2775.94 180.02 2776.24 180 2807.17 180C2824.65 180 2837.98 180.378 2837.45 180.859ZM2852.58 188.642C2851.84 190.579 2847.78 191.996 2846.33 190.827C2845.68 190.308 2844.7 188.587 2844.15 187.001C2843.23 184.374 2843.38 184.038 2845.82 183.211C2848.05 182.457 2848.89 182.72 2850.81 184.77C2852.08 186.126 2852.88 187.869 2852.58 188.642ZM2839 184C2839 184.55 2838.89 185.013 2838.75 185.03C2838.61 185.046 2827.25 187.026 2813.5 189.429L2788.5 193.799L2785.25 190.703C2783.46 189.001 2782 187.319 2782 186.967C2782 186.615 2793.14 185.648 2806.75 184.818C2839.29 182.835 2839 182.843 2839 184ZM2875.74 187.431C2881.69 189.388 2882.83 190.493 2880.28 191.832C2875.96 194.095 2872.18 194.182 2870.07 192.065C2867.8 189.798 2867.16 184.477 2869.25 185.247C2869.94 185.501 2872.86 186.484 2875.74 187.431ZM2984.84 192.763C2983.74 196.468 2982.29 203.069 2981.63 207.43C2980.96 211.792 2979.88 215.542 2979.21 215.763C2977.07 216.477 2978.13 208.741 2982.14 194.5C2984.86 184.829 2984.87 184.803 2985.92 185.45C2986.46 185.785 2986.01 188.843 2984.84 192.763ZM2993.81 187.517C2993.98 187.664 2993.4 190.421 2992.53 193.643C2991.65 196.864 2990.66 203.662 2990.32 208.75L2989.71 218H2986.91C2985.38 218 2983.88 217.616 2983.59 217.147C2982.88 215.999 2984.54 205.459 2987.13 194.72C2989.08 186.618 2989.4 185.991 2991.37 186.595C2992.54 186.954 2993.64 187.369 2993.81 187.517ZM2776.74 188.143C2777.6 189 2772.87 193.124 2757.81 204.643C2746.77 213.089 2737.46 219.981 2737.12 219.958C2736.78 219.935 2735.01 219.123 2733.2 218.154L2729.89 216.392L2752.2 201.738C2764.46 193.678 2774.75 187.065 2775.05 187.042C2775.35 187.019 2776.11 187.514 2776.74 188.143ZM2840.48 187.971C2840.81 188.505 2840.05 189.174 2838.79 189.458C2837.53 189.741 2827.31 192.253 2816.08 195.039C2795.73 200.086 2795.65 200.097 2793.68 198.125C2791.71 196.154 2791.72 196.144 2795.6 195.424C2797.75 195.027 2807.83 193.018 2818 190.961C2838.92 186.73 2839.66 186.632 2840.48 187.971ZM2865.01 191.024C2865.7 192.687 2866.99 194.459 2867.88 194.961C2870.1 196.215 2868.03 198.25 2864.54 198.25C2859.53 198.25 2856.05 192.352 2859.2 189.2C2861.28 187.123 2863.71 187.887 2865.01 191.024ZM2996.44 194.981C2995.71 198.82 2994.8 205.795 2994.42 210.481C2994.04 215.166 2993.34 219 2992.86 219C2991.56 219 2991.82 212.3 2993.51 202.381C2995.7 189.541 2996.07 188 2996.96 188C2997.41 188 2997.17 191.141 2996.44 194.981ZM3006.41 196.75C3007.35 201.563 3009.54 208.385 3011.28 211.911C3015.16 219.791 3024.34 229.199 3032.85 234C3042.68 239.551 3042.56 239.426 3039.73 240.712C3037.62 241.676 3036.5 241.325 3031.35 238.063C3016.26 228.521 3007.73 215.82 3003.12 195.99C3001.37 188.496 3001.36 188 3002.97 188C3004.33 188 3005.04 189.816 3006.41 196.75ZM3014.88 195.25C3017.38 209.481 3027.19 221.88 3040.38 227.487C3045.84 229.805 3047 230.709 3047 232.625C3047 234.743 3046.76 234.858 3044.28 233.916C3028.26 227.825 3016.1 215.576 3012.45 201.842C3010.58 194.826 3010.55 189 3012.39 189C3013.32 189 3014.16 191.099 3014.88 195.25ZM3022.46 195.29C3026.49 205.218 3032.13 210.819 3042.75 215.45C3046.33 217.011 3047 217.756 3047 220.165V223.027L3043.25 221.461C3028.9 215.469 3021.36 206.54 3018.47 192.132C3017.4 186.808 3019.77 188.688 3022.46 195.29ZM3028.51 193.024C3029.82 198.995 3036.75 204.731 3044.75 206.457C3048.32 207.227 3048.26 207.162 3047.39 209.418C3045.47 214.426 3032.11 206.322 3027.74 197.5C3025.12 192.206 3024.71 190 3026.35 190C3027.2 190 3028.13 191.311 3028.51 193.024ZM2842.43 191.887C2842.73 192.375 2834.26 195.792 2823.6 199.48C2804.57 206.062 2804.16 206.154 2801.58 204.457C2800.12 203.507 2799.19 202.453 2799.51 202.115C2800.14 201.433 2837.51 191.345 2840.19 191.133C2841.12 191.06 2842.13 191.399 2842.43 191.887ZM2778.99 198.734C2776.57 200.805 2768.54 207.749 2761.15 214.164L2747.71 225.828L2744.33 224.219C2741.62 222.923 2741.21 222.367 2742.23 221.354C2742.93 220.663 2751.82 213.788 2761.99 206.077C2778.18 193.802 2780.67 192.238 2781.94 193.512C2783.22 194.787 2782.85 195.437 2778.99 198.734ZM2855.37 195.332C2856.13 197.165 2857.97 199.621 2859.46 200.79C2860.95 201.959 2862.01 203.631 2861.83 204.506C2861.58 205.714 2860.08 204.945 2855.57 201.298C2852.32 198.659 2849.49 196.012 2849.3 195.415C2849.03 194.58 2851.52 192.703 2853.74 192.068C2853.87 192.03 2854.6 193.499 2855.37 195.332ZM2894.48 193.908L2899.47 195.662L2896.59 198.331C2895 199.799 2892.87 201 2891.85 201C2889.21 201 2886 197.437 2886 194.5C2886 191.512 2887.4 191.415 2894.48 193.908ZM2845 195.874C2845 196.355 2837.37 199.991 2828.04 203.956C2812.73 210.461 2810.88 211.026 2809.06 209.757C2807.22 208.463 2808.43 207.825 2824.28 201.759C2841.35 195.223 2845 194.188 2845 195.874ZM2886.38 202.214C2887.16 202.711 2886.99 203.439 2885.82 204.612C2884.36 206.071 2883.72 206.124 2881.03 205.011C2875.6 202.761 2874.29 197.74 2878.75 196.245C2881.2 195.425 2881.71 195.663 2883.38 198.412C2884.41 200.11 2885.76 201.821 2886.38 202.214ZM3007.04 216.973C3011.16 224.676 3019.88 234.298 3027.52 239.56C3030.56 241.65 3032.69 243.702 3032.27 244.119C3031.85 244.537 3025.79 247.568 3018.82 250.856L3006.14 256.834L3005.07 253.768C3003.3 248.694 3003.84 241.477 3006.51 234.367C3008.85 228.156 3008.91 227.561 3007.39 225.88C3006.49 224.886 3003.72 223.296 3001.24 222.347L2996.72 220.622L2997.28 209.352C2997.58 203.153 2998.16 197.551 2998.56 196.903C2998.97 196.234 3000.22 198.919 3001.43 203.112C3002.61 207.176 3005.14 213.413 3007.04 216.973ZM2788.88 199.361C2789.78 200.443 2786.72 203.86 2773.92 216.042C2757.99 231.217 2757.81 231.348 2755.32 229.838C2753.94 229 2752.78 227.932 2752.74 227.466C2752.65 226.355 2785.16 198.149 2786.63 198.065C2787.25 198.029 2788.26 198.612 2788.88 199.361ZM2846.98 198.75C2846.97 199.162 2840.58 203.164 2832.78 207.643C2819.25 215.413 2818.5 215.716 2816.27 214.258C2814.99 213.417 2814.19 212.473 2814.51 212.161C2815.21 211.456 2845.22 198.119 2846.25 198.05C2846.66 198.023 2846.99 198.338 2846.98 198.75ZM2911.81 200.092C2915.21 201.242 2918 202.615 2918 203.143C2918 204.193 2911.92 207 2909.64 207C2907.38 207 2904.14 203.742 2903.43 200.75C2902.63 197.349 2903.48 197.282 2911.81 200.092ZM3090.82 199.549C3091 199.695 3090.45 201.166 3089.59 202.819C3088.04 205.819 3083.08 210.411 3082.27 209.598C3082.03 209.362 3082.15 206.691 3082.52 203.664L3083.21 198.16L3086.86 198.721C3088.86 199.03 3090.65 199.403 3090.82 199.549ZM2876.99 206.496C2879.25 207.215 2879.59 209.008 2877.8 210.8C2876.15 212.448 2873.71 212.304 2869.53 210.315C2866.45 208.844 2866 208.169 2866 205.008C2866 201.966 2866.44 201.226 2868.75 200.384C2871.26 199.47 2871.65 199.666 2873.24 202.62C2874.19 204.4 2875.88 206.145 2876.99 206.496ZM2850 201.469C2850 201.727 2844.71 205.934 2838.24 210.817C2827.98 218.567 2826.2 219.568 2824.24 218.695C2823.01 218.145 2822 217.416 2822 217.075C2822 216.246 2847.16 201.219 2848.75 201.096C2849.44 201.043 2850 201.211 2850 201.469ZM2903.3 209.893C2901.4 212.901 2899.23 213.519 2897.16 211.643C2894.01 208.791 2893.83 206.083 2896.6 203.306L2899.08 200.833L2901.65 204.627C2903.46 207.296 2903.95 208.857 2903.3 209.893ZM3099.37 201.794C3099.99 202.79 3096.72 210.18 3093.93 214.095C3091.98 216.839 3085.41 221 3083.04 221C3080.61 221 3082.35 218.018 3087.13 213.986C3090.12 211.468 3093.06 207.848 3094.18 205.329C3095.94 201.351 3098.16 199.837 3099.37 201.794ZM2795.02 204.529C2796.11 205.832 2794.24 208.166 2782.45 220.279C2774.83 228.101 2768.29 234.876 2767.91 235.335C2767.54 235.794 2765.8 235.432 2764.06 234.531L2760.89 232.891L2770.69 223.705C2776.09 218.652 2783.2 211.935 2786.5 208.778C2789.8 205.621 2792.78 203.029 2793.13 203.019C2793.47 203.009 2794.33 203.688 2795.02 204.529ZM2852.42 203.877C2852.72 204.36 2848.45 208.919 2842.94 214.009C2834.3 221.979 2832.62 223.134 2830.8 222.326C2828.91 221.48 2829.83 220.488 2840.1 212.256C2853.18 201.777 2851.73 202.761 2852.42 203.877ZM3107 204.673C3107 204.925 3105.5 208.364 3103.67 212.316C3099.94 220.351 3094.42 226.041 3087.29 229.196C3079.35 232.707 3080.08 228.837 3088.22 224.243C3094.98 220.432 3099.04 215.853 3101.99 208.728C3103.53 205.02 3104.74 203.348 3105.65 203.695C3106.39 203.98 3107 204.42 3107 204.673ZM2931.25 206.392C2934.41 207.307 2937 208.275 2937 208.543C2937 209.58 2930.39 212.993 2928.37 212.996C2925.69 213.001 2924.19 211.214 2923.35 206.987C2922.82 204.366 2922.98 203.777 2924.09 204.196C2924.87 204.489 2928.09 205.477 2931.25 206.392ZM2849.23 216.598C2840.47 226.028 2839.59 226.659 2837.22 225.159C2835.42 224.015 2854.29 205.789 2856.42 206.609C2857.57 207.048 2855.75 209.573 2849.23 216.598ZM2895 215.727C2895 215.852 2893.89 216.68 2892.54 217.567C2890.5 218.903 2889.48 218.982 2886.59 218.028C2884.67 217.395 2882.84 216.056 2882.52 215.053C2881.58 212.109 2883.88 208.451 2887.3 207.435C2890.35 206.532 2890.53 206.653 2892.72 211C2893.97 213.475 2894.99 215.602 2895 215.727ZM3113.8 207.405C3126.02 213.761 3127.36 230.756 3116.48 241.321C3113.26 244.453 3084.56 262 3082.66 262C3082.3 262 3082 256.262 3082.01 249.25L3082.01 236.5L3088.86 232.772C3099.09 227.203 3104.8 220.208 3109.31 207.75C3110.07 205.637 3110.36 205.614 3113.8 207.405ZM2920 208.865C2920 209.891 2920.88 211.853 2921.96 213.226C2923.93 215.72 2923.93 215.722 2921.65 217.861C2916.99 222.235 2912 219.848 2912 213.247C2912 210.992 2912.71 210.01 2915.25 208.745C2919.5 206.63 2920 206.643 2920 208.865ZM2801.81 209.267C2802.6 210.219 2799.47 214.304 2789.23 225.687L2775.59 240.84L2772.66 239.322L2769.72 237.804L2784.6 222.902C2792.78 214.706 2799.76 208 2800.12 208C2800.47 208 2801.23 208.57 2801.81 209.267ZM2861.15 210.339C2861.15 211.336 2845.96 229.005 2845.12 228.985C2841.66 228.899 2842.82 226.628 2850.66 218.173C2858.29 209.941 2861.15 207.804 2861.15 210.339ZM2947.57 211.585C2950.28 212.457 2953.18 213.391 2954 213.66C2955.19 214.047 2955.01 214.547 2953.14 216.074C2950.5 218.231 2945.03 218.63 2943.2 216.8C2942.17 215.765 2941.42 210 2942.32 210C2942.5 210 2944.86 210.713 2947.57 211.585ZM2865.82 213.053C2865.62 213.632 2862.55 217.906 2858.98 222.55C2854.6 228.262 2851.92 230.914 2850.71 230.747C2849.73 230.611 2848.98 230.05 2849.06 229.5C2849.31 227.641 2863.34 212 2864.76 212C2865.53 212 2866.01 212.474 2865.82 213.053ZM2808.4 213.836C2808.78 214.46 2791.3 235.612 2784 243.349C2783.02 244.388 2778.77 243.169 2779.2 241.972C2779.87 240.063 2805.53 213 2806.66 213C2807.33 213 2808.12 213.376 2808.4 213.836ZM2908.47 215.75C2908.85 217.262 2909.85 219.271 2910.7 220.213C2913.72 223.567 2909.92 227.194 2905.49 225.177C2903.87 224.437 2902.89 222.92 2902.42 220.404C2901.82 217.249 2902.07 216.452 2904.11 214.881C2907.28 212.445 2907.66 212.521 2908.47 215.75ZM2938 215.486C2938 216.239 2939.13 217.744 2940.51 218.83L2943.02 220.804L2939.93 223.402C2938.24 224.831 2936.05 226 2935.08 226C2932.7 226 2930.15 223.024 2929.45 219.434C2928.94 216.778 2929.24 216.349 2932.69 214.907C2936.78 213.195 2938 213.328 2938 215.486ZM2864.94 222.32C2862.14 226.269 2859.24 230.328 2858.51 231.341C2857.78 232.354 2856.48 233.029 2855.62 232.841C2854.47 232.59 2855.94 230.058 2861.16 223.269C2869.43 212.512 2872.44 211.756 2864.94 222.32ZM2872.29 219.936C2871.31 221.457 2868.7 225.464 2866.5 228.842C2864 232.68 2861.81 234.986 2860.66 234.991C2858.76 235 2859.76 233.332 2869.42 220.363C2872.79 215.835 2875.19 215.48 2872.29 219.936ZM2966.5 217.519C2974.82 220.012 2974.79 219.986 2972 221.537C2968.42 223.534 2964.31 223.313 2962 221C2960.04 219.037 2959.27 215.99 2960.75 216.011C2961.16 216.017 2963.75 216.696 2966.5 217.519ZM2815.74 218.139C2816.59 218.991 2813.84 223.022 2804.82 234.139C2798.19 242.313 2792.23 249 2791.57 249C2790.92 249 2789.53 248.376 2788.49 247.614C2786.67 246.285 2786.73 246.072 2789.97 242.364C2805.66 224.429 2812.55 217 2813.49 217C2814.1 217 2815.11 217.513 2815.74 218.139ZM2878 219.259C2878 221.026 2867.18 237 2865.98 237C2864.37 237 2864.76 236.143 2870.63 226.881C2875.95 218.497 2878 216.372 2878 219.259ZM2898.82 220.333C2899.03 221.419 2898.48 222 2897.24 222C2894.61 222 2893.8 220.946 2895.16 219.309C2896.57 217.605 2898.39 218.114 2898.82 220.333ZM2958.86 222.021C2961.39 225.445 2961.11 226.375 2956.89 228.559C2952.94 230.601 2950.14 229.57 2948.41 225.436C2946.56 221.006 2946.56 221.002 2949.75 220.985C2951.26 220.976 2953.18 220.533 2954 220C2956.17 218.598 2956.4 218.692 2958.86 222.021ZM2926.55 222.25C2926.93 223.488 2927.9 225.252 2928.7 226.172C2930.01 227.665 2929.9 228.019 2927.65 229.494C2926.26 230.402 2923.86 231 2922.32 230.823C2919.87 230.542 2919.46 230.022 2919.19 226.831C2918.93 223.68 2919.28 222.954 2921.69 221.687C2925.54 219.664 2925.77 219.69 2926.55 222.25ZM2823.21 222.36C2824.75 223.534 2823.87 225.126 2813.83 239.29L2802.75 254.924L2799.63 253.335C2797.91 252.461 2796.33 251.597 2796.13 251.415C2795.5 250.866 2819.42 221.1 2820.5 221.081C2821.05 221.072 2822.27 221.647 2823.21 222.36ZM2883.83 221.877C2883.65 222.359 2881.25 226.396 2878.5 230.848C2875.37 235.915 2872.85 238.953 2871.75 238.971C2870.79 238.987 2870 238.744 2870 238.431C2870 236.868 2881.68 221 2882.83 221C2883.57 221 2884.02 221.395 2883.83 221.877ZM2985.16 223.167C2989.54 224.478 2989.76 226.334 2985.58 226.825C2982.96 227.134 2979 224.742 2979 222.845C2979 221.701 2980.54 221.782 2985.16 223.167ZM2889 223.363C2889 223.562 2886.69 227.871 2883.87 232.937C2880.49 239.024 2878.41 241.812 2877.76 241.157C2876.68 240.082 2886.38 223 2888.07 223C2888.58 223 2889 223.163 2889 223.363ZM2830.7 226.296C2832.86 227.494 2832.69 227.833 2822.89 242.01C2817.38 249.98 2812.53 257.089 2812.12 257.809C2811.5 258.864 2810.83 258.879 2808.65 257.887C2807.17 257.21 2806.09 256.234 2806.26 255.719C2806.76 254.211 2827.45 225.026 2828 225.05C2828.28 225.061 2829.49 225.622 2830.7 226.296ZM2892.4 228.25C2886.93 239.037 2883.67 244.072 2882.76 243.159C2881.54 241.942 2890.88 225.016 2892.78 225.007C2893.73 225.002 2893.64 225.812 2892.4 228.25ZM2977.9 226.887L2980.29 228.729L2976.41 231.365C2970.64 235.288 2968.24 234.746 2966.52 229.125C2966.03 227.547 2966.24 226.462 2967.14 225.89C2969.47 224.413 2975.39 224.962 2977.9 226.887ZM2897 226.957C2897 227.484 2895.15 231.951 2892.89 236.884C2890.11 242.964 2888.35 245.688 2887.44 245.339C2886.44 244.956 2887.29 242.424 2890.78 235.412C2894.98 226.955 2897 224.207 2897 226.957ZM2916 227.469C2916 228.363 2915.41 228.712 2914.5 228.362C2913.68 228.045 2913 227.384 2913 226.893C2913 226.402 2913.68 226 2914.5 226C2915.33 226 2916 226.661 2916 227.469ZM2946.88 229.189C2950.66 233.422 2949.92 237.347 2945.24 237.809C2939.14 238.412 2935.46 230.892 2940.22 227.557C2943.24 225.442 2943.61 225.532 2946.88 229.189ZM3000.3 227.705C3002.14 228.076 3002.99 228.807 3002.79 229.841C3002.43 231.741 2998.13 233.001 2995.87 231.871C2992.52 230.198 2992.5 225.206 2995.85 226.502C2996.76 226.853 2998.76 227.394 3000.3 227.705ZM2897.75 237.5C2895.37 243.031 2893.08 247 2892.27 247C2890.54 247 2890.98 245.482 2895.6 235.484C2897.51 231.368 2899.68 228 2900.44 228C2901.43 228 2900.66 230.716 2897.75 237.5ZM2838.9 229.914C2839.66 230.4 2840.03 231.406 2839.71 232.149C2838.44 235.082 2820.25 262.418 2819.36 262.713C2818.84 262.886 2817.6 262.425 2816.59 261.689C2814.88 260.441 2815.46 259.302 2825.13 244.702C2830.83 236.094 2835.95 229.047 2836.5 229.041C2837.05 229.035 2838.13 229.428 2838.9 229.914ZM2902.64 239.257C2898.72 247.724 2896 251.179 2896 247.683C2896 246.867 2897.78 242.335 2899.95 237.611C2902.84 231.317 2904.29 229.175 2905.38 229.591C2906.57 230.051 2906.06 231.875 2902.64 239.257ZM2991.59 231.513C2992.9 236.715 2985.89 239.48 2984 234.509C2982.58 230.762 2983.73 229 2987.59 229C2990.36 229 2991.08 229.45 2991.59 231.513ZM2963 231.171C2963 231.815 2963.79 233.214 2964.75 234.279C2966.44 236.143 2966.37 236.323 2963.04 239.108C2958.97 242.503 2955.51 242.825 2953.97 239.951C2951.96 236.195 2953.15 232.874 2957 231.494C2961.63 229.833 2963 229.759 2963 231.171ZM2910.21 233.125C2909.93 234.502 2903.9 250.199 2903.41 250.842C2903.27 251.03 2902.5 250.805 2901.69 250.342C2900.48 249.642 2900.93 247.938 2904.36 240.246C2906.62 235.157 2908.93 231.163 2909.49 231.371C2910.05 231.58 2910.37 232.369 2910.21 233.125ZM2934 233.107C2934 234.617 2933.55 235.042 2932.42 234.607C2931.55 234.273 2930.37 234 2929.8 234C2929.17 234 2929.25 233.408 2930 232.5C2931.8 230.327 2934 230.66 2934 233.107ZM2846.25 233.25C2847.7 234.366 2846.88 236.217 2838.55 250.5C2833.42 259.3 2828.73 266.455 2828.11 266.4C2827.5 266.345 2826.33 266.233 2825.5 266.15C2824.68 266.067 2824 265.506 2824 264.902C2824 263.607 2843.24 232.078 2844.06 232.032C2844.37 232.014 2845.35 232.563 2846.25 233.25ZM2916 233.53C2916 233.822 2914.81 236.859 2913.36 240.28C2911.91 243.701 2910.08 248.022 2909.3 249.882C2908.28 252.273 2907.55 252.951 2906.8 252.198C2906.05 251.446 2906.54 249.138 2908.48 244.317C2909.98 240.568 2911.61 236.488 2912.08 235.25C2912.82 233.339 2916 231.942 2916 233.53ZM2917.96 242.193C2913.58 254.039 2912.93 255.326 2911.82 254.22C2911.1 253.495 2911.92 250.225 2914.52 243.519C2917.05 236.998 2918.59 234.19 2919.27 234.873C2919.96 235.557 2919.53 237.935 2917.96 242.193ZM2980.99 240.679C2981 244.545 2979.14 248 2977.05 248C2975.56 248 2973.91 245.202 2973.42 241.839C2972.86 238.023 2973.49 236.885 2977 235.358C2980.16 233.985 2980.96 235.062 2980.99 240.679ZM3000.1 237.75C2999.26 240.895 2995.37 242.135 2994.39 239.57C2993.35 236.87 2994.78 235 2997.88 235C3000.61 235 3000.77 235.207 3000.1 237.75ZM2854.67 236.776C2856.09 237.679 2838.5 271 2836.6 271C2835.93 271 2834.58 270.415 2833.6 269.7C2831.96 268.498 2832.55 267.175 2841.44 252.2C2846.73 243.29 2851.61 236.007 2852.28 236.015C2852.95 236.024 2854.03 236.366 2854.67 236.776ZM2924.41 236.851C2925.32 238.329 2917.76 256 2916.22 256C2915.25 256 2915.02 255.433 2915.5 254.25C2915.89 253.287 2917.24 249.575 2918.5 246C2919.76 242.425 2921.11 238.713 2921.5 237.75C2922.27 235.871 2923.56 235.472 2924.41 236.851ZM2929.57 239.75C2925.26 251.447 2922.28 257.993 2921.25 257.996C2919.29 258.002 2919.43 257.48 2925.89 240.75C2926.47 239.238 2927.69 238 2928.58 238C2929.72 238 2930.02 238.535 2929.57 239.75ZM2862.69 239.785C2863.52 240.313 2861.12 245.698 2854.69 257.751C2849.63 267.217 2845.25 274.971 2844.94 274.981C2844.63 274.992 2843.55 274.394 2842.54 273.654C2840.81 272.39 2841.27 271.307 2850.1 255.683C2855.27 246.539 2859.95 239.051 2860.5 239.044C2861.05 239.037 2862.03 239.37 2862.69 239.785ZM2934.36 239.781C2934.8 240.485 2927.66 258.672 2926.49 259.844C2926.22 260.113 2925.71 260.039 2925.35 259.679C2924.59 258.924 2932.15 239 2933.19 239C2933.57 239 2934.1 239.351 2934.36 239.781ZM2968.7 244.63C2968.37 244.965 2966.84 244.923 2965.3 244.536L2962.5 243.831L2964.97 241.827L2967.44 239.822L2968.38 241.921C2968.89 243.075 2969.04 244.294 2968.7 244.63ZM2992.4 242.259C2993.78 244.465 2991.34 249.31 2988.59 249.841C2986.16 250.308 2985.03 248.368 2985.02 243.687C2985 240.007 2985.11 239.884 2988.15 240.187C2989.88 240.359 2991.79 241.291 2992.4 242.259ZM2939 241.669C2939 242.038 2937.39 246.733 2935.41 252.105C2932.79 259.243 2931.45 261.724 2930.41 261.328C2928.61 260.636 2928.55 261.001 2931.64 253.72C2933.09 250.299 2934.89 246.037 2935.65 244.25C2936.85 241.415 2939 239.759 2939 241.669ZM2870.94 242.94C2872.63 244.011 2873.25 242.594 2862.09 263.183L2853.67 278.703L2850.81 277.621C2849.23 277.026 2848.07 276.053 2848.22 275.458C2848.9 272.817 2867.57 242.002 2868.48 242.015C2869.04 242.024 2870.15 242.44 2870.94 242.94ZM2944 242.669C2944 243.038 2942.38 247.763 2940.39 253.169C2938.06 259.524 2936.26 263 2935.31 263C2934.5 263 2933.98 262.639 2934.17 262.197C2934.35 261.755 2936.06 257.03 2937.97 251.697C2939.9 246.302 2942.01 242 2942.72 242C2943.43 242 2944 242.301 2944 242.669ZM2944.42 254.961C2942.37 260.482 2940.31 265 2939.85 265C2938.54 265 2938.77 264.053 2942.1 255.477C2946.95 242.981 2947.21 242.424 2947.69 243.711C2947.94 244.377 2946.47 249.439 2944.42 254.961ZM3047 258.908V274.817L3029.35 285.029C3008.77 296.938 2987.41 307.759 2970.5 314.842C2961.51 318.609 2905.42 340 2904.53 340C2904.46 340 2902.71 336.738 2900.67 332.75C2894.56 320.864 2894.55 320.884 2907.95 312.758C2921.27 304.682 2946.79 291.773 2958.97 286.953C2963.62 285.11 2974.2 279.807 2982.47 275.169C2996.93 267.056 3044.6 243 3046.22 243C3046.65 243 3047 250.159 3047 258.908ZM2998.99 247.25C2998.97 250.702 2997.54 253.868 2996.47 252.804C2996.12 252.452 2995.59 250.328 2995.28 248.083C2994.79 244.411 2994.95 244 2996.87 244C2998.61 244 2999 244.595 2998.99 247.25ZM2878.55 246.081C2879.14 247.033 2864.93 279.095 2862.9 281.394C2862.44 281.914 2860.87 281.775 2859.15 281.064L2856.2 279.839L2863.71 266.67C2867.84 259.426 2872.31 251.588 2873.65 249.25C2876.12 244.932 2877.35 244.138 2878.55 246.081ZM2948.95 256.749C2945.32 267.743 2945.33 267.726 2944 266.395C2943.13 265.534 2944.5 261.324 2950.43 246.5C2950.94 245.226 2951.4 244.953 2951.7 245.749C2951.96 246.435 2950.72 251.385 2948.95 256.749ZM2956.77 247.25C2956.52 247.938 2954.78 252.887 2952.91 258.248C2951.03 263.61 2948.96 267.997 2948.31 267.998C2947.51 267.999 2947.92 265.64 2949.59 260.75C2950.94 256.762 2952.51 251.813 2953.07 249.75C2953.69 247.44 2954.68 246 2955.65 246C2956.51 246 2957.01 246.563 2956.77 247.25ZM2961 247.881C2961 248.365 2959.4 253.203 2957.44 258.631C2954.02 268.091 2952 271.972 2952 269.081C2952 266.91 2959.44 247.003 2960.25 247.001C2960.66 247.001 2961 247.396 2961 247.881ZM2886.78 248.843C2887.74 249.455 2885.96 254.076 2879.53 267.576C2874.84 277.433 2870.65 285.617 2870.21 285.762C2869.78 285.908 2868.7 285.458 2867.81 284.763C2866.38 283.635 2867.12 281.603 2874.76 265.75C2879.47 255.988 2883.81 248.007 2884.41 248.015C2885.01 248.024 2886.08 248.396 2886.78 248.843ZM2966 249.425C2966 250.753 2959.1 270.978 2958.32 271.933C2958.13 272.172 2957.52 271.92 2956.97 271.373C2956.32 270.716 2957.37 266.599 2960.11 259.19C2963.83 249.103 2966 245.501 2966 249.425ZM2966.85 262.539C2964.53 268.515 2962.48 272.937 2962.29 272.365C2962.01 271.531 2965.15 262.414 2969.64 251C2969.99 250.124 2970.4 249.952 2970.65 250.586C2970.87 251.184 2969.16 256.562 2966.85 262.539ZM2894.9 251.919C2896.04 252.635 2894.7 256.37 2887.99 271.293L2879.67 289.78L2876.79 288.776C2875.2 288.224 2874.04 287.437 2874.21 287.026C2876.79 280.48 2891.77 251.01 2892.5 251.019C2893.05 251.025 2894.13 251.43 2894.9 251.919ZM2976.33 252.625C2975.7 255.909 2967.67 275 2966.93 275C2965.51 275 2965.68 274.319 2970.16 262.221C2972.5 255.881 2974.8 251.119 2975.41 251.346C2976.01 251.568 2976.42 252.144 2976.33 252.625ZM2980.39 259.75C2976.97 268.933 2974.74 273.317 2973.26 273.776C2972.5 274.012 2973.46 270.059 2975.73 263.581C2978.52 255.63 2979.87 253 2981.18 253C2982.75 253 2982.67 253.643 2980.39 259.75ZM2903.28 255.25C2904.79 256.382 2904.18 258.217 2896.78 274.75C2892.28 284.788 2888.11 293 2887.5 293C2886.88 293 2885.62 292.438 2884.69 291.75C2883.15 290.611 2883.63 289.171 2890.08 275.5C2893.97 267.25 2897.77 259.038 2898.52 257.25C2900.03 253.69 2900.78 253.373 2903.28 255.25ZM2984.01 262.486C2982.01 268.472 2980.52 270.852 2979.44 269.768C2979.2 269.531 2980.06 266.673 2981.35 263.418C2982.65 260.163 2984.05 256.6 2984.47 255.5C2984.95 254.236 2985.4 253.959 2985.7 254.747C2985.96 255.433 2985.19 258.916 2984.01 262.486ZM2991 257.032C2991 259.893 2988.31 266 2987.05 266C2985.65 266 2985.72 265.185 2987.59 259.678C2989.24 254.841 2991 253.475 2991 257.032ZM2996.8 258.701C2996.98 259.906 2996.41 261.013 2995.41 261.396C2993.13 262.27 2992.78 261.727 2993.57 258.574C2994.33 255.55 2996.35 255.629 2996.8 258.701ZM3103 258C3103 259.1 3102.55 260 3102 260C3101.45 260 3101 259.1 3101 258C3101 256.9 3101.45 256 3102 256C3102.55 256 3103 256.9 3103 258ZM2911.31 258.25C2912.86 259.39 2912.28 261.107 2904.75 277.792C2896.83 295.364 2896.4 296.059 2894 295.461C2892.63 295.118 2891.39 294.726 2891.26 294.591C2890.81 294.145 2908.32 257 2908.98 257C2909.33 257 2910.38 257.563 2911.31 258.25ZM3095.45 263.058C3093.6 265.102 3090 265.714 3090 263.985C3090 263.427 3091.46 262.081 3093.25 260.993C3096.91 258.767 3098.22 259.997 3095.45 263.058ZM2919.24 261.25C2920.7 262.371 2919.99 264.382 2912.3 280.75C2904.4 297.575 2902.21 300.762 2900.48 297.96C2899.84 296.924 2915.95 260 2917.05 260C2917.36 260 2918.35 260.563 2919.24 261.25ZM3129 261.466C3129 262.272 3128.25 264.505 3127.33 266.428L3125.67 269.924L3116.08 269.323C3110.81 268.992 3106.32 268.562 3106.09 268.367C3105.86 268.172 3106.22 266.21 3106.88 264.006L3108.08 260H3118.54C3127.06 260 3129 260.271 3129 261.466ZM3101.46 265.25C3100.25 270.923 3096.78 273.106 3095.68 268.89C3095.31 267.478 3095.92 265.989 3097.52 264.39C3100.91 260.996 3102.31 261.301 3101.46 265.25ZM2928 264.593C2928 265.092 2911.89 301.42 2911.48 301.841C2910.83 302.511 2907 300.847 2907 299.896C2907 299.362 2910.87 290.896 2915.6 281.082C2922.89 265.957 2924.49 263.314 2926.1 263.736C2927.14 264.009 2928 264.395 2928 264.593ZM3087 265.777C3087 267.075 3083.95 271 3082.94 271C3081.3 271 3081.93 267.141 3083.75 266.08C3085.87 264.843 3087 264.738 3087 265.777ZM2933.92 266.929C2935.55 267.963 2935.08 269.421 2927.02 288.254C2922.88 297.91 2921.7 299.779 2918.66 301.476C2916.71 302.563 2914.84 303.171 2914.49 302.827C2913.64 301.972 2930.25 266.028 2931.5 266.03C2932.05 266.03 2933.14 266.435 2933.92 266.929ZM3077 271.5V276H3064H3051V272.167C3051 270.058 3051.3 268.033 3051.67 267.667C3052.03 267.3 3057.88 267 3064.67 267H3077V271.5ZM3090.5 272.995C3089.52 274.892 3088.25 276.001 3087.28 275.812C3084.44 275.262 3084.75 273.098 3088.13 269.755C3090.81 267.111 3091.49 266.816 3091.78 268.183C3091.97 269.108 3091.39 271.274 3090.5 272.995ZM2942.44 270.332C2944.17 271.597 2944.04 272.172 2939.97 281.582C2934.85 293.413 2934.72 293.593 2929.67 296.166C2925.03 298.534 2924.72 299.977 2932.72 281.996C2935.9 274.852 2938.98 269.005 2939.56 269.003C2940.14 269.001 2941.44 269.6 2942.44 270.332ZM2946.54 281.22C2943.94 288.003 2941.85 291 2939.74 291C2938.6 291 2939.54 288.146 2943.67 279.074C2946.21 273.491 2947.33 271.932 2948.19 272.793C2949.06 273.655 2948.65 275.747 2946.54 281.22ZM3096.72 277.401C3095.27 278.555 3091.33 281.014 3087.96 282.864L3081.83 286.229L3083.41 283.178C3084.6 280.88 3085.79 280.05 3088.24 279.814C3090.58 279.587 3091.83 278.775 3092.73 276.887C3093.74 274.773 3094.49 274.371 3096.67 274.788L3099.36 275.302L3096.72 277.401ZM2956 275.417C2956 277.398 2951.71 285.086 2950.13 285.93C2947.01 287.602 2946.99 287.372 2949.74 281C2951.56 276.785 2952.87 275 2954.16 275C2955.17 275 2956 275.188 2956 275.417ZM2962.3 278.25C2963.79 279.359 2963.55 279.682 2960.13 281.117L2956.27 282.734L2957.36 279.867C2958.54 276.73 2959.73 276.341 2962.3 278.25ZM3081 281.531C3081 283.625 3078.3 284.496 3076.49 282.989C3074.18 281.072 3074.72 280 3078 280C3080.03 280 3081 280.497 3081 281.531ZM3052 281.566C3052 283.393 3049.65 286 3048 286C3046.02 286 3043.57 282.761 3044.7 281.631C3045.49 280.848 3052 280.789 3052 281.566ZM3065.71 284.25C3063.94 286.516 3062.47 287.422 3060.84 287.242C3058.58 286.992 3055 283.71 3055 281.889C3055 281.4 3057.98 281 3061.63 281H3068.26L3065.71 284.25ZM3043 288.757C3043 291.212 3040.97 294 3039.19 294C3037.16 294 3033 291.3 3033 289.979C3033 289.48 3034.69 287.924 3036.75 286.522C3040.23 284.158 3040.59 284.097 3041.75 285.677C3042.44 286.615 3043 288.001 3043 288.757ZM3074.42 286.38L3077.93 288.761L3073.4 291.13C3069.02 293.425 3068.83 293.441 3067.49 291.635C3066.29 290.006 3066.38 289.404 3068.24 286.885C3069.42 285.298 3070.5 284 3070.64 284C3070.79 284 3072.49 285.071 3074.42 286.38ZM3096.16 288.75C3095.76 292.151 3095.62 292.296 3094.73 290.305C3093.71 288.038 3094.31 285 3095.77 285C3096.23 285 3096.4 286.688 3096.16 288.75ZM3057.25 287.943C3060.54 289.593 3060.68 290.87 3057.93 294.365C3055.45 297.521 3054.13 297.618 3049.05 295.023C3044.68 292.795 3044.19 289.9 3048.08 289.306C3049.41 289.103 3051.16 288.273 3051.97 287.46C3052.78 286.647 3053.68 286.113 3053.97 286.273C3054.26 286.433 3055.74 287.184 3057.25 287.943ZM3093.02 294.095C3093.77 298.552 3093.93 303.664 3093.45 307.845L3092.68 314.5L3090.41 302C3088.32 290.52 3088.27 289.398 3089.76 288.25C3090.65 287.563 3091.48 287 3091.6 287C3091.72 287 3092.36 290.193 3093.02 294.095ZM3029.85 297.644C3028.17 301.167 3024.28 301.86 3021.02 299.219L3018.7 297.338L3024.1 294.207C3029.17 291.27 3029.55 291.191 3030.36 292.932C3030.9 294.108 3030.71 295.834 3029.85 297.644ZM3065.44 292.928C3067.11 294.783 3067.06 294.918 3064 296.502C3062.25 297.407 3060.7 298.002 3060.55 297.824C3060.23 297.43 3062.87 291 3063.35 291C3063.54 291 3064.48 291.868 3065.44 292.928ZM3087.94 305.093C3089.98 318.085 3090.07 321.4 3088.34 319.677C3087.46 318.796 3083.09 292.703 3083.67 291.75C3085.03 289.484 3085.95 292.362 3087.94 305.093ZM3082.48 303.75C3083.42 309.113 3084.55 315.19 3084.99 317.256C3085.43 319.322 3085.4 321.252 3084.92 321.547C3083.94 322.154 3083.8 321.594 3081.02 306.5C3078.7 293.849 3078.71 294 3079.88 294C3080.37 294 3081.54 298.387 3082.48 303.75ZM3039.72 296.712C3042.08 296.262 3042.19 296.434 3041.66 299.707C3040.63 306.042 3037.44 307.704 3033.47 303.974C3031.59 302.201 3031.45 301.522 3032.38 298.556C3033.29 295.642 3033.71 295.307 3035.33 296.177C3036.37 296.734 3038.35 296.975 3039.72 296.712ZM3079.35 309.202C3081.08 317.839 3081.66 322.743 3081.02 323.385C3080.48 323.925 3079.8 324.138 3079.52 323.857C3078.96 323.291 3074 299.513 3074 297.362C3074 296.613 3074.61 296 3075.35 296C3076.29 296 3077.52 300.066 3079.35 309.202ZM3051.77 299.826L3055.03 301.568L3049.49 304.284C3046.45 305.778 3043.8 307 3043.6 307C3043.41 307 3043.98 304.975 3044.87 302.5C3046.66 297.499 3047.09 297.333 3051.77 299.826ZM3073.92 311.828C3077.51 327.365 3077.35 326 3075.65 326C3074.06 326 3068.44 301.911 3069.43 299.335C3069.77 298.444 3070.23 297.894 3070.45 298.113C3070.67 298.333 3072.23 304.505 3073.92 311.828ZM3015.03 304.948C3013.73 307.374 3008.86 307.746 3007.05 305.557C3006.06 304.365 3006.69 303.687 3010.68 301.651C3015.21 299.338 3015.52 299.301 3015.81 301.042C3015.99 302.062 3015.63 303.82 3015.03 304.948ZM3070.95 327.333C3070.98 328.355 3070.46 328.985 3069.77 328.757C3067.94 328.146 3062.8 302.743 3064.32 301.804C3065.16 301.285 3066.28 304.616 3068.2 313.286C3069.68 320.004 3070.92 326.325 3070.95 327.333ZM3028 307.166C3028 310.706 3026.41 314 3024.7 314C3024.02 314 3021.78 312.857 3019.73 311.46C3016.12 309.008 3016.04 308.827 3017.4 306.196C3018.68 303.727 3019.24 303.505 3023.4 303.836C3027.75 304.181 3028 304.363 3028 307.166ZM3063.04 317.676C3064.8 325.594 3065.54 330.857 3064.96 331.433C3064.45 331.947 3063.88 332.172 3063.68 331.933C3063.49 331.695 3061.83 325.724 3060 318.664C3057.23 308.011 3056.9 305.681 3058.05 304.968C3058.82 304.495 3059.61 304.276 3059.81 304.481C3060.02 304.685 3061.47 310.623 3063.04 317.676ZM3037 310.662C3037 310.964 3031.34 314 3030.77 314C3030.59 314 3030.62 312.22 3030.82 310.045L3031.2 306.089L3034.1 308.233C3035.7 309.412 3037 310.505 3037 310.662ZM3000.34 308.821C3000.08 309.823 2998.83 311.93 2997.58 313.504C2995.42 316.207 2995.12 316.293 2992.15 315.061C2990.42 314.344 2989 313.353 2989 312.859C2989 312.095 2998.21 307.325 3000.16 307.082C3000.52 307.037 3000.6 307.82 3000.34 308.821ZM3011.27 310.424C3012.74 310.862 3012.92 311.66 3012.38 315.225C3011.27 322.476 3008.36 323.935 3003.44 319.704L3000.77 317.408L3002.57 312.354C3004.33 307.403 3004.41 307.327 3006.93 308.599C3008.34 309.314 3010.3 310.134 3011.27 310.424ZM3057.88 320.913C3060.41 330.704 3060.82 333.494 3059.8 334.121C3059.1 334.559 3058.24 334.598 3057.9 334.208C3057.56 333.819 3055.89 327.885 3054.2 321.022C3051.92 311.782 3051.43 308.354 3052.3 307.813C3054.08 306.717 3054.4 307.475 3057.88 320.913ZM3051.51 323.607C3053.51 331.113 3054.57 336.834 3054.05 337.353C3053.22 338.183 3052.24 335.392 3047.48 318.697C3046.03 313.61 3046.08 308.747 3047.57 310.231C3047.85 310.516 3049.63 316.535 3051.51 323.607ZM3021.43 316.749C3023.17 317.68 3022.96 317.979 3019.22 319.889C3014.12 322.487 3013.66 322.507 3014.97 320.066C3015.53 319.002 3016 316.907 3016 315.411C3016 312.909 3016.14 312.812 3017.75 314.205C3018.71 315.038 3020.37 316.183 3021.43 316.749ZM3043.64 315.75C3044.01 317.262 3045.56 323.213 3047.1 328.974C3049.18 336.765 3049.59 339.637 3048.7 340.183C3048.05 340.586 3047.24 340.598 3046.9 340.208C3045.88 339.047 3040.09 314.661 3040.63 313.796C3041.62 312.189 3042.98 313.072 3043.64 315.75ZM2981.55 321.558C2979.63 324.494 2977.05 324.671 2973.86 322.086C2971.11 319.858 2971.02 319.986 2977.5 317.24C2982.47 315.137 2982.5 315.136 2982.83 317.119C2983.01 318.217 2982.43 320.215 2981.55 321.558ZM3038.03 320.25C3038.64 322.587 3040.23 328.528 3041.55 333.45C3043.41 340.308 3043.68 342.578 3042.74 343.159C3042.07 343.576 3041.23 343.598 3040.89 343.208C3040.54 342.819 3038.58 336.928 3036.53 330.118C3033.52 320.107 3033.07 317.573 3034.16 316.883C3036.42 315.446 3036.88 315.847 3038.03 320.25ZM2995.1 319.685C2996.75 319.253 2996.97 319.532 2996.44 321.333C2996.08 322.525 2994.95 324.378 2993.92 325.451C2992.41 327.02 2991.52 327.215 2989.38 326.451C2985.7 325.141 2984.62 323.088 2985.88 319.804C2986.89 317.163 2986.97 317.139 2990.01 318.656C2991.72 319.507 2994.01 319.97 2995.1 319.685ZM3033.64 332.565C3038.58 346.42 3038.41 345.628 3036.56 346.337C3035.48 346.753 3034.13 343.895 3031.06 334.693C3026.72 321.665 3026.31 319.605 3028.2 320.232C3028.85 320.451 3031.31 326.001 3033.64 332.565ZM2895.56 327.25C2896.5 330.137 2898.11 334.17 2899.14 336.21C2901.37 340.655 2901.4 341 2899.61 341C2898.78 341 2896.73 337.309 2894.61 331.993C2890.47 321.667 2890.55 322 2892.42 322C2893.25 322 2894.56 324.189 2895.56 327.25ZM2966.82 325.75C2964.91 332.728 2962.96 333.52 2957.99 329.335L2954.82 326.67L2960.16 324.422C2967.72 321.24 2968.03 321.302 2966.82 325.75ZM3006.97 326.051C3007.01 326.715 2998.35 331 2996.97 331C2995.44 331 2995.82 329.41 2998.22 325.802C3000.41 322.493 3000.46 322.478 3003.68 323.983C3005.47 324.817 3006.95 325.748 3006.97 326.051ZM3028.23 335.25C3031.44 343.995 3032.43 347.87 3031.71 348.792C3030.16 350.749 3029.51 349.483 3025.6 336.86C3021.79 324.544 3021.49 323 3022.86 323C3023.34 323 3025.75 328.512 3028.23 335.25ZM2892.29 331.751C2893.83 336.013 2895.33 340.219 2895.62 341.097C2895.99 342.204 2895.17 343.102 2892.94 344.024C2890.06 345.217 2889.59 345.161 2888.37 343.487C2886.62 341.097 2883 331.458 2883 329.194C2883 327.76 2887.23 324.119 2889 324.027C2889.28 324.013 2890.76 327.489 2892.29 331.751ZM3091.81 337.75L3091.5 342.5L3089.54 334.639C3087.6 326.834 3087.6 326.769 3089.54 325.339C3091.4 323.971 3091.52 324.125 3091.81 328.45C3091.97 330.952 3091.97 335.137 3091.81 337.75ZM2972.42 325.75C2972.83 326.163 2974.71 326.95 2976.59 327.5L2980.02 328.5L2978.26 332C2976.34 335.822 2973.46 336.853 2969.96 334.977C2968.13 334 2967.91 333.278 2968.5 330.172C2969.46 325.01 2970.51 323.836 2972.42 325.75ZM3022.42 337.438C3026.03 349.113 3026.44 353 3024.06 353C3023.51 353 3021.2 347.094 3018.92 339.875C3015.57 329.239 3015.04 326.588 3016.14 325.891C3016.89 325.418 3017.74 325.024 3018.04 325.015C3018.34 325.007 3020.31 330.597 3022.42 337.438ZM3088.82 343.5C3092.3 359.176 3093.97 375 3092.16 375C3091.54 375 3090.73 373.762 3090.35 372.25C3089.98 370.738 3087.34 360.591 3084.49 349.701L3079.31 329.903L3081.9 328.538C3083.84 327.523 3084.66 327.471 3085.11 328.336C3085.45 328.976 3087.12 335.8 3088.82 343.5ZM3016.52 341.83C3019.23 350.821 3019.94 354.458 3019.14 355.263C3018.53 355.87 3017.85 356.172 3017.62 355.933C3017.4 355.695 3015.36 349.681 3013.09 342.57C3009.93 332.662 3009.26 329.457 3010.23 328.861C3010.92 328.433 3011.78 328.402 3012.14 328.792C3012.5 329.181 3014.47 335.048 3016.52 341.83ZM2881.03 330.25C2881.05 330.938 2882.35 334.65 2883.93 338.5C2885.65 342.693 2886.44 345.881 2885.9 346.45C2885.33 347.048 2884.61 347.012 2883.95 346.353C2882.37 344.768 2877.83 331.089 2878.52 329.975C2879.37 328.589 2881 328.767 2881.03 330.25ZM2949.46 331.25C2948.54 334.354 2946.14 338 2945.03 338C2943.8 338 2938.36 333.281 2939 332.762C2939.91 332.021 2947.48 329.196 2948.82 329.097C2949.73 329.03 2949.93 329.698 2949.46 331.25ZM2990.25 330.707C2991.76 330.993 2992.99 331.738 2992.98 332.363C2992.97 333.366 2983.7 338.022 2981.75 338.006C2980.61 337.997 2980.85 334.416 2982.19 331.48C2983.11 329.465 2983.85 329.018 2985.44 329.527C2986.57 329.89 2988.74 330.421 2990.25 330.707ZM2872.88 330.625C2875.33 331.116 2876 331.763 2876 333.645C2876 334.962 2877.12 338.807 2878.5 342.188C2879.87 345.57 2880.89 348.438 2880.75 348.562C2878.4 350.697 2859.6 359.404 2854.02 360.94C2846.21 363.09 2826.91 363.86 2824.18 362.13C2821.32 360.32 2825.74 358.193 2833.74 357.527C2845.07 356.583 2846.9 356.083 2848.62 353.457C2850.81 350.115 2849.63 349 2843.91 349C2836.38 349 2831.33 351.514 2813.32 364.226C2804.75 370.274 2803 370.994 2803 368.475C2803 367.62 2809.15 362.895 2816.99 357.725C2824.69 352.651 2830.52 348.345 2829.96 348.156C2828.76 347.752 2818.28 353.852 2807.97 360.952C2803.98 363.699 2800.33 365.702 2799.85 365.404C2799.36 365.106 2799.21 364.471 2799.5 363.994C2800.35 362.63 2812.09 354.621 2820.13 349.923C2824.16 347.573 2826.94 345.478 2826.31 345.269C2824.84 344.779 2814.4 350.029 2805.72 355.628C2798.92 360.01 2797 360.776 2797 359.104C2797 358.021 2809.13 350.415 2817.68 346.136C2824.18 342.881 2826.27 341 2823.39 341C2821.35 341 2804.04 350.104 2799.49 353.575C2795.99 356.244 2794 356.672 2794.01 354.75C2794.03 352.106 2817.6 339.186 2830.13 334.95C2833.63 333.765 2839.43 332.209 2843 331.492C2849.93 330.102 2867.69 329.587 2872.88 330.625ZM2962.98 336.795C2963.01 338.709 2958.37 343.003 2956.3 342.978C2955.31 342.966 2953.48 342.168 2952.23 341.206C2949.98 339.476 2949.97 339.41 2951.69 335.389L2953.43 331.321L2958.19 333.41C2960.81 334.56 2962.96 336.083 2962.98 336.795ZM3082.43 354.347C3085.57 366.362 3088 376.314 3087.82 376.461C3086.59 377.488 3082.75 379.08 3082.38 378.712C3082 378.328 3077.07 360.358 3071.69 339.734L3070.18 333.969L3072.84 332.559C3074.3 331.784 3075.77 331.454 3076.11 331.825C3076.44 332.196 3079.29 342.331 3082.43 354.347ZM3010.59 345.241C3014.18 355.995 3014.58 357.948 3013.26 358.454C3012.41 358.78 3011.5 358.837 3011.25 358.579C3010.99 358.322 3008.78 352.614 3006.34 345.894C3002.88 336.361 3002.19 333.496 3003.2 332.855C3003.92 332.403 3004.92 332.165 3005.43 332.327C3005.95 332.489 3008.26 338.3 3010.59 345.241ZM2934 335.351C2934 337.868 2931.35 342.125 2929.49 342.591C2927.15 343.179 2921.38 340.295 2922.54 339.115C2923.71 337.921 2934 334.541 2934 335.351ZM3002.47 344C3004.03 348.125 3006.1 353.579 3007.08 356.12L3008.87 360.739L3006.46 361.839C3004.06 362.928 3004 362.821 2999.88 349.864C2996.48 339.172 2995.97 336.635 2997.1 335.937C2998.91 334.822 2999.14 335.169 3002.47 344ZM3072.57 358.81C3076.77 373.677 3078.35 380.731 3077.6 381.235C3074.19 383.523 3073.36 382.003 3066.68 361.187C3063.01 349.74 3060 339.877 3060 339.27C3060 338.139 3065.12 335.935 3065.98 336.696C3066.24 336.929 3069.21 346.88 3072.57 358.81ZM2943.96 342.921C2944.08 346.921 2938.21 349.345 2934.69 346.75C2933.1 345.583 2933.13 345.223 2935.06 341.337L2937.12 337.174L2940.52 339.337C2942.39 340.527 2943.93 342.14 2943.96 342.921ZM2976 341.057C2976 341.839 2969.26 345 2967.59 345C2966.85 345 2965.69 344.327 2965 343.505C2964.01 342.302 2964.07 341.541 2965.34 339.612C2966.9 337.231 2966.94 337.226 2971.45 338.849C2973.95 339.748 2976 340.742 2976 341.057ZM2997.27 350.261C2999.34 356.993 3001.03 363.014 3001.02 363.643C3000.99 365.281 2998.01 366.205 2997.49 364.733C2997.26 364.055 2995.24 358.328 2993 352.006C2989.24 341.335 2989.07 340.423 2990.66 339.256C2991.61 338.565 2992.63 338.005 2992.94 338.011C2993.25 338.018 2995.2 343.53 2997.27 350.261ZM3062.41 363.345C3066.11 374.809 3069 384.311 3068.82 384.459C3067.84 385.283 3063.79 387.112 3063.57 386.831C3063.07 386.184 3050 345.183 3050 344.252C3050 343.042 3054.31 341.015 3055.08 341.862C3055.4 342.213 3058.7 351.88 3062.41 363.345ZM2915 343.365C2915 345.79 2910.93 350 2908.58 350C2907.33 350 2905.55 349.165 2904.63 348.143C2903.03 346.37 2903.19 346.194 2908.23 344.208C2914.63 341.686 2915 341.639 2915 343.365ZM2990.87 354.901C2994.57 365.072 2995.1 367.326 2993.92 368.071C2993.14 368.565 2992.2 368.976 2991.83 368.985C2990.74 369.01 2982.79 344.145 2983.52 342.972C2984.99 340.585 2986.59 343.183 2990.87 354.901ZM2924.32 345.173C2926.78 346.332 2927.07 346.922 2926.62 349.839C2925.62 356.22 2922.87 357.508 2918.41 353.674L2915.7 351.347L2917.56 347.145C2918.58 344.834 2919.88 343.146 2920.46 343.394C2921.03 343.643 2922.77 344.443 2924.32 345.173ZM2954.97 345.53C2959.77 347.276 2959.79 348.555 2955.08 350.96L2951.03 353.027L2949.01 351.013C2946.91 348.914 2946.57 347.29 2947.63 344.524C2948.03 343.468 2948.84 343.131 2949.88 343.578C2950.77 343.958 2953.06 344.837 2954.97 345.53ZM2983.98 357.682C2986.69 366.145 2987.7 370.698 2987.03 371.366C2986.48 371.916 2985.87 372.172 2985.67 371.933C2985.01 371.141 2978 347.81 2978 346.393C2978 345.627 2978.43 345 2978.96 345C2979.49 345 2981.75 350.707 2983.98 357.682ZM3053.46 366.346C3057.06 377.536 3060 387.181 3060 387.779C3060 388.97 3056.17 390.504 3055.32 389.653C3055.03 389.362 3051.93 379.773 3048.44 368.343C3042.1 347.591 3041.91 346.063 3045.71 346.015C3046.41 346.006 3049.69 354.594 3053.46 366.346ZM2981.77 374.144C2981.1 374.555 2980.39 374.721 2980.18 374.514C2979.97 374.306 2978.11 368.274 2976.03 361.108C2973.51 352.407 2972.63 347.947 2973.38 347.678C2975.06 347.074 2983.33 373.176 2981.77 374.144ZM2896.23 352.166C2895.69 352.711 2893.95 352.981 2892.37 352.766L2889.5 352.377L2893 350.765C2896.42 349.188 2898.37 350.03 2896.23 352.166ZM2903.09 350.604C2903.82 351.486 2905.47 352.607 2906.75 353.095C2908.71 353.841 2908.91 354.298 2908.01 355.991C2906.58 358.647 2905.63 358.53 2901.95 355.248C2899.81 353.332 2899.08 351.966 2899.54 350.748C2900.38 348.576 2901.37 348.535 2903.09 350.604ZM2939 350.94C2940.93 351.267 2942.46 351.957 2942.42 352.474C2942.24 354.497 2935.28 358.949 2931.32 359.574L2927.15 360.232L2929.22 354.596C2931.04 349.661 2931.56 349.046 2933.4 349.653C2934.55 350.035 2937.08 350.614 2939 350.94ZM3045.01 369.8C3048.31 380.858 3051 390.571 3051 391.385C3051 392.693 3047.32 394.724 3046.55 393.841C3046.39 393.654 3043.77 384.05 3040.73 372.5C3035.78 353.69 3035.37 351.371 3036.78 350.26C3037.65 349.579 3038.51 349.172 3038.69 349.358C3038.88 349.543 3041.72 358.742 3045.01 369.8ZM2973.02 363.067C2975.11 371.476 2975.92 376.479 2975.3 377.101C2974.32 378.084 2966.87 352.26 2967.71 350.75C2968.92 348.547 2970.07 351.219 2973.02 363.067ZM2968.03 365.62C2970.66 376.839 2970.99 379.393 2969.86 380.105C2969.11 380.58 2968.04 380.976 2967.49 380.985C2966.93 380.993 2965.23 375.039 2963.71 367.753C2961.13 355.339 2961.06 354.427 2962.67 353.253C2963.61 352.564 2964.48 352 2964.61 352C2964.73 352 2966.27 358.129 2968.03 365.62ZM3032.51 355.026C3034.64 361.741 3042.83 395.473 3042.47 396.055C3042.23 396.442 3041.16 396.986 3040.1 397.264C3038.34 397.723 3037.67 395.789 3032.85 376.341C3028.27 357.919 3027.73 354.78 3029.01 353.971C3031.19 352.592 3031.79 352.773 3032.51 355.026ZM2875.96 356.393C2871.73 360.418 2830.28 391.32 2829 391.403C2828.18 391.456 2827.5 390.949 2827.5 390.276C2827.5 388.699 2862.63 362.579 2870.5 358.304C2877.17 354.679 2878.11 354.352 2875.96 356.393ZM2899.11 358.25C2903.16 360.761 2903.9 361.567 2902.35 361.797C2899.2 362.264 2890.56 358.662 2890.19 356.722C2889.66 354 2893.24 354.613 2899.11 358.25ZM2881.33 357.249C2881.43 357.478 2871 366.31 2858.18 376.876C2840.38 391.537 2834.4 395.943 2832.93 395.477C2831.87 395.14 2831.02 394.558 2831.03 394.183C2831.07 393.362 2880.36 356.104 2880.83 356.533C2881.02 356.698 2881.24 357.02 2881.33 357.249ZM2917.9 358.39L2922.29 360.691L2918.4 361.334C2912.08 362.378 2908.76 362.162 2909.42 360.75C2909.74 360.063 2910.28 358.712 2910.62 357.75C2911.41 355.492 2912.55 355.591 2917.9 358.39ZM2960.48 367.75C2961.95 374.212 2963.36 380.25 2963.62 381.166C2964.09 382.847 2962.35 384.687 2961.3 383.63C2960.38 382.714 2955.18 357.155 2955.78 356.549C2957.25 355.081 2958 356.874 2960.48 367.75ZM3029.12 375.858C3035.78 401.469 3035.5 399.636 3032.85 400.33C3031.6 400.655 3030.4 400.734 3030.17 400.506C3029.58 399.911 3019.08 362.775 3019.04 361.11C3019 359.52 3022.03 356.928 3023.44 357.348C3023.96 357.503 3026.52 365.832 3029.12 375.858ZM2953 358.807C2953 359.778 2956.75 380.603 2957.48 383.646C2957.81 385.051 2957.42 386.008 2956.35 386.419C2955.45 386.765 2954.54 386.871 2954.32 386.657C2953.51 385.844 2949 360.443 2949.46 359.25C2949.98 357.882 2953 357.505 2953 358.807ZM2885 359.386C2885 359.598 2876.56 367.55 2866.25 377.058C2855.94 386.565 2846.05 395.692 2844.28 397.339C2841.64 399.793 2840.67 400.158 2838.89 399.364C2836.92 398.485 2838.9 396.558 2860.11 378.709C2881.03 361.104 2885 358.021 2885 359.386ZM2947.53 373.575C2950.51 389.043 2950.52 389.63 2948.05 390.277C2946.38 390.712 2945.95 390.032 2945.08 385.644C2943.88 379.615 2941.01 362.805 2941 361.823C2941 361.197 2944.14 360.139 2944.78 360.551C2944.94 360.651 2946.18 366.512 2947.53 373.575ZM2887.8 363.825C2886.82 365.068 2869.64 385.549 2853.31 404.956C2852.67 405.713 2844.49 402.568 2844.63 401.619C2844.85 400.138 2887.45 361.205 2888.3 361.708C2888.74 361.967 2888.51 362.919 2887.8 363.825ZM3021.13 382.251L3026.75 402.5L3024.27 403.84C3022.9 404.577 3021.43 404.802 3021 404.34C3020.57 403.878 3018.07 394.573 3015.44 383.661C3011.45 367.056 3010.9 363.677 3012.08 362.927C3012.86 362.434 3013.95 362.024 3014.5 362.017C3015.05 362.009 3018.03 371.115 3021.13 382.251ZM2818.92 364.327C2815.02 367.379 2808.89 371.221 2808.51 370.843C2808.24 370.572 2810.36 368.718 2813.22 366.722C2816.09 364.727 2818.63 363.298 2818.88 363.547C2819.13 363.796 2819.15 364.147 2818.92 364.327ZM2938 363.837C2938 364.298 2939.15 370.877 2940.55 378.458C2941.95 386.039 2942.96 392.356 2942.8 392.496C2942.63 392.637 2941.51 393.055 2940.31 393.426C2937.8 394.196 2937.8 394.192 2936.04 377.83C2934.64 364.813 2934.7 363 2936.5 363C2937.33 363 2938 363.377 2938 363.837ZM2818.33 369.61C2811.79 373.763 2810 374.599 2810 373.498C2810 372.103 2822.27 364.165 2823.62 364.685C2824.68 365.093 2823.07 366.599 2818.33 369.61ZM2855.45 364.858C2853.38 366.73 2823.95 388 2823.44 388C2822.04 388 2824.94 385.434 2836.89 376.085C2848.6 366.93 2852.75 364.244 2855.45 364.063C2856.05 364.023 2856.05 364.316 2855.45 364.858ZM2886.98 374.25C2883.06 379.887 2876.18 389.819 2871.7 396.319L2863.55 408.138L2860.02 407.48C2855.49 406.632 2855.43 406.539 2857.64 403.772C2868.43 390.258 2891.57 364 2892.69 364C2893.56 364 2891.32 368.021 2886.98 374.25ZM2932.44 373.75C2933.8 394.903 2933.74 396.148 2931.25 397.087L2929 397.936V381.634C2929 372.669 2929.3 365.033 2929.67 364.667C2931.35 362.988 2931.86 364.658 2932.44 373.75ZM2897.6 366.611C2897.26 367.497 2891.77 377.397 2885.4 388.611L2873.82 409H2870.31H2866.8L2868.65 406.121C2876.17 394.408 2896.66 365.083 2897.36 365.046C2897.83 365.021 2897.94 365.725 2897.6 366.611ZM2926.21 396.253C2925.12 400.487 2921.81 401.434 2922.48 397.321C2922.74 395.77 2923.45 388.202 2924.06 380.505C2924.68 372.808 2925.48 366.058 2925.84 365.505C2926.84 363.987 2927.18 392.523 2926.21 396.253ZM2829.49 367.016C2828.29 368.953 2814.11 377.983 2813.59 377.14C2812.98 376.155 2826.85 366 2828.8 366C2829.53 366 2829.84 366.457 2829.49 367.016ZM2904.82 367.494C2904.65 368.316 2900.68 377.735 2896 388.425L2887.5 407.862L2882.69 408.533C2880.04 408.903 2877.66 408.996 2877.41 408.741C2877.05 408.38 2891.83 383.649 2901.62 368.25C2903.23 365.712 2905.32 365.22 2904.82 367.494ZM2922 368.25C2922.01 375.238 2918.63 401.607 2917.65 402.235C2915.39 403.677 2912.84 403.09 2913.36 401.25C2913.64 400.288 2914.81 394.325 2915.96 388C2919.49 368.657 2920.11 366 2921.07 366C2921.58 366 2922 367.012 2922 368.25ZM3012.42 384.75C3014.98 395.063 3017.3 404.228 3017.57 405.118C3017.9 406.217 3017.07 407.142 3014.99 408.003C3013.31 408.699 3011.68 409.012 3011.36 408.697C3011.05 408.382 3008.78 399.225 3006.33 388.348C3002.12 369.714 3001.97 368.497 3003.62 367.286C3004.59 366.579 3005.92 366 3006.57 366C3007.27 366 3009.64 373.595 3012.42 384.75ZM2836 367.399C2836 368.51 2817.85 381.118 2816.77 380.758C2816.08 380.527 2818.62 378.125 2822.41 375.419C2826.2 372.714 2830.25 369.727 2831.4 368.783C2833.31 367.222 2836 366.413 2836 367.399ZM2832.52 376.114C2825.16 381.85 2820.48 384.878 2819.88 384.282C2818.71 383.109 2839.64 367 2842.34 367C2843.44 367 2839.41 370.739 2832.52 376.114ZM2910.96 367.75C2910.94 368.163 2908.11 377.025 2904.68 387.444C2898.48 406.277 2898.43 406.392 2895.11 407.251C2893.28 407.725 2891.64 407.976 2891.47 407.807C2890.7 407.03 2908.6 367 2909.73 367C2910.43 367 2910.98 367.337 2910.96 367.75ZM2917 368.068C2917 369.227 2910.27 400.457 2909.45 403.131C2908.99 404.609 2903.25 406.587 2902.27 405.605C2901.96 405.295 2908.16 384.719 2913.53 368.25C2914.03 366.728 2917 366.573 2917 368.068ZM3003.16 390.255C3005.72 401.39 3007.52 410.787 3007.16 411.138C3006.8 411.488 3005.59 412.049 3004.48 412.384C3002.57 412.955 3002.2 411.75 2998.38 392.461C2994.72 374.03 2994.47 371.835 2995.9 370.996C2996.78 370.482 2997.73 370.049 2998 370.035C2998.28 370.021 3000.6 379.12 3003.16 390.255ZM2803.33 374.25C2804.8 375.33 2794.97 381.143 2730.96 417C2690.22 439.825 2656.35 458.625 2655.68 458.778C2654.52 459.045 2646.97 449.873 2647.03 448.276C2647.09 446.98 2796.31 373.174 2799.06 373.084C2800.47 373.038 2802.39 373.563 2803.33 374.25ZM2992 374.71C2992 375.562 2997.84 409.605 2998.5 412.598C2998.84 414.134 2998.26 415.015 2996.35 415.886C2994.92 416.54 2993.64 416.946 2993.53 416.787C2993.41 416.629 2991.82 407.347 2989.99 396.161C2987.18 378.927 2986.89 375.684 2988.09 374.926C2989.79 373.848 2992 373.726 2992 374.71ZM2809.75 380.58C2808.72 381.618 2670.67 476 2670.19 476C2669.12 476 2661 467.632 2661 466.533C2661 465.955 2693.74 445.631 2733.75 421.369C2800.7 380.772 2806.64 377.378 2808.26 378.788C2809.22 379.631 2809.9 380.438 2809.75 380.58ZM2983.37 379.75C2983.65 380.712 2985.29 389.782 2987 399.903C2989.52 414.777 2989.87 418.466 2988.81 419.138C2986.46 420.629 2985.17 420.05 2984.61 417.25C2984.3 415.738 2982.62 406.892 2980.88 397.594C2977.82 381.298 2977.77 380.64 2979.54 379.344C2981.98 377.565 2982.76 377.648 2983.37 379.75ZM3098.4 393.193C3111.77 441.988 3113.47 471.353 3104.03 490.574C3094.38 510.237 3065.01 524.321 3025.99 528.001C3013.43 529.185 3000.82 528.424 2943.5 523.02C2926.45 521.413 2905.95 519.794 2897.94 519.424C2866.35 517.962 2838.55 523.837 2803.75 539.33C2799.56 541.196 2798 542.425 2798 543.862C2798 544.946 2798.55 546.017 2799.22 546.241C2799.9 546.465 2805.41 544.294 2811.47 541.416C2831.92 531.712 2850.61 526.81 2874.36 524.917C2891.22 523.575 2907.45 524.6 2947 529.504C2962.13 531.38 2979.45 533.496 2985.5 534.207L2996.5 535.5L2997.26 555.91C2997.67 567.136 2997.8 576.536 2997.53 576.8C2997.27 577.064 2986.13 580.375 2972.78 584.159L2948.5 591.038L2916.5 592.609C2891.84 593.82 2868.96 594.087 2816.76 593.771L2749.01 593.362L2746.49 590.992C2740.59 585.446 2734.83 571.952 2732.99 559.327C2730.29 540.888 2737.16 523.175 2750.6 513.929C2753.97 511.616 2759.04 509.868 2771 506.908C2790.51 502.079 2809.54 495.574 2834.51 485.199C2844.95 480.857 2864.75 472.9 2878.5 467.516C2892.25 462.132 2916.13 452.653 2931.57 446.451C2957 436.234 2973.82 429.094 3057.26 393.073C3082.33 382.252 3092.76 378.526 3094.21 379.868C3094.6 380.229 3096.49 386.225 3098.4 393.193ZM2816 387.045C2816 387.428 2786.99 410.997 2751.54 439.419L2687.08 491.096L2682.04 487.335C2679.27 485.266 2677.02 483.332 2677.04 483.037C2677.07 482.741 2707.3 459.884 2744.22 432.243L2811.36 381.986L2813.68 384.167C2814.96 385.367 2816 386.662 2816 387.045ZM2975.89 387.25C2979.66 406.469 2981.98 421.411 2981.3 422.039C2980.86 422.444 2979.59 423.047 2978.49 423.38C2976.58 423.952 2976.31 422.91 2973.43 403.933C2970.72 386.034 2970.56 383.784 2971.94 382.971C2974.52 381.465 2974.82 381.788 2975.89 387.25ZM2967.03 386.25C2967.05 386.387 2968.34 395.275 2969.9 406C2972.73 425.382 2972.69 426.938 2969.43 426.985C2968.56 426.997 2961.92 392.522 2961.98 388.323C2961.99 387.676 2962.79 386.941 2963.75 386.689C2966.12 386.07 2966.99 385.953 2967.03 386.25ZM2816.79 400.57C2805.51 411.641 2713.69 499.341 2711.89 500.748C2710.6 501.76 2709.26 501.636 2704.77 500.094C2701.73 499.047 2698.05 497.565 2696.59 496.8C2693.93 495.409 2693.99 495.361 2756.59 442.147L2819.25 388.886L2821.66 391.15L2824.07 393.414L2816.79 400.57ZM2958.48 392.25C2958.76 393.488 2960.28 402.301 2961.85 411.836L2964.72 429.173L2962.35 430.249C2961.05 430.841 2959.8 431.13 2959.56 430.892C2959.2 430.53 2953 393.534 2953 391.736C2953 391.222 2954.94 390.48 2957.23 390.116C2957.63 390.052 2958.19 391.012 2958.48 392.25ZM2952.47 413.158C2955.19 431.657 2955.23 432.362 2953.45 433.658C2952.44 434.396 2951.34 435 2951.01 435C2950.08 435 2944.7 396.292 2945.46 395.069C2945.82 394.481 2946.91 394 2947.89 394C2949.42 394 2950.03 396.569 2952.47 413.158ZM2829 397.169C2829 397.694 2808.03 422.059 2782.4 451.312C2735.91 504.369 2735.78 504.501 2731.65 504.791C2729.37 504.95 2725.88 504.725 2723.9 504.291L2720.31 503.5L2773.25 449.319C2822.24 399.187 2829 392.865 2829 397.169ZM2944.18 415.578C2945.66 425.435 2946.9 434.243 2946.93 435.152C2946.97 436.139 2945.73 437.248 2943.84 437.907C2942.1 438.513 2940.58 438.894 2940.46 438.755C2940.34 438.615 2939.23 429.761 2937.99 419.079C2935.82 400.273 2935.81 399.616 2937.58 398.316C2938.59 397.577 2939.89 397.127 2940.46 397.315C2941.03 397.503 2942.71 405.721 2944.18 415.578ZM2834.42 400.607C2835.29 400.941 2836 401.597 2836 402.065C2836 402.532 2818.64 425.322 2797.41 452.708C2767.86 490.838 2758.2 502.651 2756.16 503.146C2754.7 503.501 2751.12 504.044 2748.21 504.353L2742.92 504.915L2745.21 502.022C2751.83 493.658 2831.6 400.134 2832.17 400.072C2832.54 400.033 2833.55 400.273 2834.42 400.607ZM2934.94 421.5C2936.08 431.4 2937.01 439.793 2937.01 440.152C2937 440.801 2930.87 443.239 2930.46 442.755C2930.17 442.4 2926.98 407.016 2926.99 404.218C2927 401.275 2931.16 399.389 2932.18 401.86C2932.56 402.762 2933.8 411.6 2934.94 421.5ZM2925.48 424.416C2927.16 445.309 2927.08 445.944 2922.91 445.985C2921.57 445.998 2921.06 442.875 2919.59 425.875C2918.63 414.806 2918.22 405.399 2918.68 404.972C2919.71 403.994 2923.44 403.246 2923.69 403.964C2923.8 404.259 2924.6 413.462 2925.48 424.416ZM2841.33 405.253C2841.52 406.022 2782.34 496.514 2780.34 498.521C2779.06 499.802 2770.19 501.525 2769.33 500.661C2768.94 500.268 2806.23 448.493 2833.77 411.194C2838.55 404.721 2840.76 402.982 2841.33 405.253ZM2915 408.693C2915 411.311 2916.62 435.167 2917.38 443.779C2917.69 447.244 2917.39 448.258 2915.8 449.11C2914.71 449.689 2913.68 450.009 2913.49 449.823C2913.02 449.352 2910 415.788 2910 411.025C2910 407.311 2910.54 406.69 2914.25 406.116C2914.66 406.052 2915 407.212 2915 408.693ZM2847.35 408.265C2848.93 409.42 2847.25 413.109 2828.1 450.501C2807.82 490.104 2806.99 491.525 2803.31 493.07C2799.27 494.768 2789.92 497.291 2789.51 496.795C2789.11 496.303 2844.25 407 2844.96 407C2845.32 407 2846.4 407.569 2847.35 408.265ZM2907.95 428.5C2908.61 438.95 2909.37 448.264 2909.63 449.198C2909.95 450.335 2909.13 451.396 2907.18 452.409L2904.25 453.922L2903.65 448.211C2903.33 445.07 2902.76 435.008 2902.39 425.85C2901.76 410.05 2901.82 409.178 2903.61 408.773C2904.65 408.538 2905.78 408.605 2906.13 408.923C2906.47 409.24 2907.29 418.05 2907.95 428.5ZM2855 411.588C2855 412.028 2831.98 473.55 2829.52 479.661C2827.99 483.482 2827.28 484.034 2820.87 486.411C2817.03 487.835 2813.69 489 2813.44 489C2813.2 489 2821.86 471.272 2832.69 449.605C2846.15 422.685 2852.8 410.369 2853.69 410.712C2854.41 410.988 2855 411.382 2855 411.588ZM2899.35 422.157C2899.71 428.843 2900 439.141 2900 445.04C2900 454.926 2899.84 455.808 2898 456.29C2896.04 456.802 2896 456.32 2896 433.406C2896 414.455 2896.26 410 2897.35 410C2898.37 410 2898.85 412.958 2899.35 422.157ZM2892 434.893C2892 460.053 2892.01 460 2887.56 460C2885.86 460 2886.66 412.901 2888.39 411.765C2891.83 409.497 2892 410.616 2892 434.893ZM2861 413.241C2861 413.924 2857.54 428.52 2853.31 445.677L2845.61 476.871L2840.16 478.957C2837.16 480.104 2834.62 480.921 2834.5 480.771C2834.39 480.622 2839.61 465.2 2846.12 446.5C2852.62 427.8 2857.95 412.387 2857.97 412.25C2858.08 411.302 2861 412.256 2861 413.241ZM2867.74 412.817C2868.7 413.429 2868.09 419.93 2864.99 442.052C2862.8 457.698 2861 470.56 2861 470.634C2861 471.075 2849.86 475.19 2849.54 474.87C2849.1 474.43 2863.65 414.383 2864.54 412.93C2865.24 411.804 2866.1 411.774 2867.74 412.817ZM2884 436.879V461.757L2880.97 463.013C2879.3 463.704 2877.79 464.096 2877.61 463.885C2877.18 463.376 2879.96 414.862 2880.51 413.25C2880.75 412.563 2881.63 412 2882.47 412C2883.8 412 2884 415.204 2884 436.879ZM2876.93 416.25C2876.9 418.038 2876.11 429.847 2875.18 442.493L2873.5 465.486L2869.64 467.302C2867.52 468.3 2865.52 468.857 2865.21 468.539C2864.7 468.03 2871.53 417.449 2872.54 414.25C2872.76 413.563 2873.85 413 2874.97 413C2876.61 413 2876.99 413.628 2876.93 416.25ZM3084.27 523.541C3085.67 524.939 3090.29 532.352 3094.54 540.015C3106.07 560.772 3114.93 570.502 3128.5 577.276C3134.78 580.412 3145.78 583.619 3153.17 584.47C3159.24 585.17 3160.73 586.615 3158.51 589.653C3157.32 591.287 3155.34 591.54 3141.33 591.844C3112.16 592.479 3100.45 588.922 3074.69 571.61C3060.45 562.039 3059.16 561.699 3047.51 564.441C3044.21 565.216 3041.36 565.694 3041.17 565.503C3040.77 565.106 3037.98 532.687 3038.31 532.354C3038.86 531.805 3077.74 521.236 3079.61 521.125C3080.78 521.056 3082.87 522.144 3084.27 523.541ZM3035.9 542.909C3037.56 555.588 3037.37 567 3035.5 567C3034.28 567 3033.99 565.288 3033.96 557.75C3033.94 552.663 3033.35 545.246 3032.65 541.27C3031.77 536.26 3031.71 533.918 3032.44 533.645C3034.27 532.962 3034.76 534.273 3035.9 542.909ZM3003.65 541.75C3004.9 552.281 3004.71 575.252 3003.36 575.708C3002.2 576.102 3001.74 571.623 3000.39 546.75C2999.84 536.561 2999.97 535 3001.3 535C3002.46 535 3003.04 536.687 3003.65 541.75ZM3028.51 536.75C3028.91 537.712 3029.47 545.293 3029.75 553.595L3030.26 568.69L3021.38 570.887C3016.5 572.096 3011.76 573.306 3010.86 573.576C3009 574.13 3008.57 570.879 3007.43 547.75L3006.8 535H3017.29C3026.34 535 3027.89 535.241 3028.51 536.75Z" fill="#8B5CF6" stroke="#EC4899"/>
<path d="M411.082 388.05C411.082 399 410.368 409.474 408.941 419.471H154.156C156.535 454.225 171.046 471.602 197.69 471.602C214.819 471.602 227.189 463.746 234.802 448.036H402.518C396.808 476.6 384.676 502.309 366.12 525.16C348.04 547.536 324.964 565.389 296.893 578.719C269.297 591.573 238.846 598 205.541 598C165.575 598 129.89 589.669 98.4884 573.006C67.5621 556.343 43.2968 532.539 25.6926 501.594C8.56421 470.173 0 433.516 0 391.621C0 349.726 8.56421 313.306 25.6926 282.361C43.2968 250.94 67.5621 226.898 98.4884 210.236C129.89 193.573 165.575 185.242 205.541 185.242C245.507 185.242 280.954 193.573 311.88 210.236C343.282 226.422 367.547 249.75 384.676 280.219C402.28 310.688 411.082 346.632 411.082 388.05ZM250.503 350.202C250.503 336.872 246.221 326.874 237.657 320.209C229.093 313.068 218.387 309.498 205.541 309.498C177.469 309.498 161.055 323.066 156.297 350.202H250.503Z" fill="#EC4899"/>
<path d="M945.782 593.001H787.344L619.628 338.776V593.001H461.19V87.4079H619.628L787.344 345.917V87.4079H945.782V593.001Z" fill="#8B5CF6"/>
<path d="M1407.03 388.05C1407.03 399 1406.32 409.474 1404.89 419.471H1150.11C1152.49 454.225 1167 471.602 1193.64 471.602C1210.77 471.602 1223.14 463.746 1230.75 448.036H1398.47C1392.76 476.6 1380.63 502.309 1362.07 525.16C1343.99 547.536 1320.92 565.389 1292.84 578.719C1265.25 591.573 1234.8 598 1201.49 598C1161.53 598 1125.84 589.669 1094.44 573.006C1063.51 556.343 1039.25 532.539 1021.64 501.594C1004.52 470.173 995.952 433.516 995.952 391.621C995.952 349.726 1004.52 313.306 1021.64 282.361C1039.25 250.94 1063.51 226.898 1094.44 210.236C1125.84 193.573 1161.53 185.242 1201.49 185.242C1241.46 185.242 1276.91 193.573 1307.83 210.236C1339.23 226.422 1363.5 249.75 1380.63 280.219C1398.23 310.688 1407.03 346.632 1407.03 388.05ZM1246.45 350.202C1246.45 336.872 1242.17 326.874 1233.61 320.209C1225.04 313.068 1214.34 309.498 1201.49 309.498C1173.42 309.498 1157.01 323.066 1152.25 350.202H1246.45Z" fill="#8B5CF6"/>
<path d="M1813.98 87.4079V213.092H1615.58V283.075H1758.32V402.333H1615.58V593.001H1457.14V87.4079H1813.98Z" fill="#8B5CF6"/>
<path d="M2264.46 87.4079V213.092H2130.29V593.001H1971.85V213.092H1839.1V87.4079H2264.46Z" fill="#8B5CF6"/>
<path d="M2387.36 158.105C2359.77 158.105 2337.64 150.726 2320.99 135.968C2304.34 121.209 2296.01 102.642 2296.01 80.2667C2296.01 57.4151 2304.34 38.6101 2320.99 23.8517C2337.64 8.61723 2359.77 1 2387.36 1C2414.48 1 2436.37 8.61723 2453.02 23.8517C2469.67 38.6101 2478 57.4151 2478 80.2667C2478 102.642 2469.67 121.209 2453.02 135.968C2436.37 150.726 2414.48 158.105 2387.36 158.105ZM2465.87 190.24V593.001H2307.43V190.24H2465.87Z" fill="#8B5CF6"/>
</svg>
